G04 #@! TF.GenerationSoftware,KiCad,Pcbnew,(5.1.9)-1*
G04 #@! TF.CreationDate,2023-04-23T22:26:49+02:00*
G04 #@! TF.ProjectId,cp2102rs485,63703231-3032-4727-9334-38352e6b6963,rev?*
G04 #@! TF.SameCoordinates,Original*
G04 #@! TF.FileFunction,Legend,Top*
G04 #@! TF.FilePolarity,Positive*
%FSLAX46Y46*%
G04 Gerber Fmt 4.6, Leading zero omitted, Abs format (unit mm)*
G04 Created by KiCad (PCBNEW (5.1.9)-1) date 2023-04-23 22:26:49*
%MOMM*%
%LPD*%
G01*
G04 APERTURE LIST*
%ADD10C,0.075000*%
%ADD11C,0.120000*%
%ADD12C,0.150000*%
G04 APERTURE END LIST*
D10*
X99683571Y-46536488D02*
X99707380Y-46560297D01*
X99731190Y-46631726D01*
X99731190Y-46679345D01*
X99707380Y-46750773D01*
X99659761Y-46798392D01*
X99612142Y-46822202D01*
X99516904Y-46846011D01*
X99445476Y-46846011D01*
X99350238Y-46822202D01*
X99302619Y-46798392D01*
X99255000Y-46750773D01*
X99231190Y-46679345D01*
X99231190Y-46631726D01*
X99255000Y-46560297D01*
X99278809Y-46536488D01*
X99731190Y-46322202D02*
X99231190Y-46322202D01*
X99231190Y-46131726D01*
X99255000Y-46084107D01*
X99278809Y-46060297D01*
X99326428Y-46036488D01*
X99397857Y-46036488D01*
X99445476Y-46060297D01*
X99469285Y-46084107D01*
X99493095Y-46131726D01*
X99493095Y-46322202D01*
X99278809Y-45846011D02*
X99255000Y-45822202D01*
X99231190Y-45774583D01*
X99231190Y-45655535D01*
X99255000Y-45607916D01*
X99278809Y-45584107D01*
X99326428Y-45560297D01*
X99374047Y-45560297D01*
X99445476Y-45584107D01*
X99731190Y-45869821D01*
X99731190Y-45560297D01*
X99731190Y-45084107D02*
X99731190Y-45369821D01*
X99731190Y-45226964D02*
X99231190Y-45226964D01*
X99302619Y-45274583D01*
X99350238Y-45322202D01*
X99374047Y-45369821D01*
X99231190Y-44774583D02*
X99231190Y-44726964D01*
X99255000Y-44679345D01*
X99278809Y-44655535D01*
X99326428Y-44631726D01*
X99421666Y-44607916D01*
X99540714Y-44607916D01*
X99635952Y-44631726D01*
X99683571Y-44655535D01*
X99707380Y-44679345D01*
X99731190Y-44726964D01*
X99731190Y-44774583D01*
X99707380Y-44822202D01*
X99683571Y-44846011D01*
X99635952Y-44869821D01*
X99540714Y-44893630D01*
X99421666Y-44893630D01*
X99326428Y-44869821D01*
X99278809Y-44846011D01*
X99255000Y-44822202D01*
X99231190Y-44774583D01*
X99278809Y-44417440D02*
X99255000Y-44393630D01*
X99231190Y-44346011D01*
X99231190Y-44226964D01*
X99255000Y-44179345D01*
X99278809Y-44155535D01*
X99326428Y-44131726D01*
X99374047Y-44131726D01*
X99445476Y-44155535D01*
X99731190Y-44441250D01*
X99731190Y-44131726D01*
X99731190Y-43917440D02*
X99231190Y-43917440D01*
X99731190Y-43631726D01*
X99231190Y-43631726D01*
X99731190Y-43012678D02*
X99231190Y-43012678D01*
X99207380Y-42417440D02*
X99850238Y-42846011D01*
X99231190Y-42155535D02*
X99231190Y-42060297D01*
X99255000Y-42012678D01*
X99302619Y-41965059D01*
X99397857Y-41941250D01*
X99564523Y-41941250D01*
X99659761Y-41965059D01*
X99707380Y-42012678D01*
X99731190Y-42060297D01*
X99731190Y-42155535D01*
X99707380Y-42203154D01*
X99659761Y-42250773D01*
X99564523Y-42274583D01*
X99397857Y-42274583D01*
X99302619Y-42250773D01*
X99255000Y-42203154D01*
X99231190Y-42155535D01*
X99731190Y-41346011D02*
X99231190Y-41346011D01*
X99469285Y-41346011D02*
X99469285Y-41060297D01*
X99731190Y-41060297D02*
X99231190Y-41060297D01*
X99707380Y-40631726D02*
X99731190Y-40679345D01*
X99731190Y-40774583D01*
X99707380Y-40822202D01*
X99659761Y-40846011D01*
X99469285Y-40846011D01*
X99421666Y-40822202D01*
X99397857Y-40774583D01*
X99397857Y-40679345D01*
X99421666Y-40631726D01*
X99469285Y-40607916D01*
X99516904Y-40607916D01*
X99564523Y-40846011D01*
X99731190Y-40179345D02*
X99469285Y-40179345D01*
X99421666Y-40203154D01*
X99397857Y-40250773D01*
X99397857Y-40346011D01*
X99421666Y-40393630D01*
X99707380Y-40179345D02*
X99731190Y-40226964D01*
X99731190Y-40346011D01*
X99707380Y-40393630D01*
X99659761Y-40417440D01*
X99612142Y-40417440D01*
X99564523Y-40393630D01*
X99540714Y-40346011D01*
X99540714Y-40226964D01*
X99516904Y-40179345D01*
X99731190Y-39726964D02*
X99231190Y-39726964D01*
X99707380Y-39726964D02*
X99731190Y-39774583D01*
X99731190Y-39869821D01*
X99707380Y-39917440D01*
X99683571Y-39941250D01*
X99635952Y-39965059D01*
X99493095Y-39965059D01*
X99445476Y-39941250D01*
X99421666Y-39917440D01*
X99397857Y-39869821D01*
X99397857Y-39774583D01*
X99421666Y-39726964D01*
X99707380Y-39298392D02*
X99731190Y-39346011D01*
X99731190Y-39441250D01*
X99707380Y-39488869D01*
X99659761Y-39512678D01*
X99469285Y-39512678D01*
X99421666Y-39488869D01*
X99397857Y-39441250D01*
X99397857Y-39346011D01*
X99421666Y-39298392D01*
X99469285Y-39274583D01*
X99516904Y-39274583D01*
X99564523Y-39512678D01*
X99731190Y-39060297D02*
X99397857Y-39060297D01*
X99493095Y-39060297D02*
X99445476Y-39036488D01*
X99421666Y-39012678D01*
X99397857Y-38965059D01*
X99397857Y-38917440D01*
X100222857Y-46822202D02*
X100556190Y-46822202D01*
X100270476Y-46822202D02*
X100246666Y-46798392D01*
X100222857Y-46750773D01*
X100222857Y-46679345D01*
X100246666Y-46631726D01*
X100294285Y-46607916D01*
X100556190Y-46607916D01*
X100532380Y-46393630D02*
X100556190Y-46322202D01*
X100556190Y-46203154D01*
X100532380Y-46155535D01*
X100508571Y-46131726D01*
X100460952Y-46107916D01*
X100413333Y-46107916D01*
X100365714Y-46131726D01*
X100341904Y-46155535D01*
X100318095Y-46203154D01*
X100294285Y-46298392D01*
X100270476Y-46346011D01*
X100246666Y-46369821D01*
X100199047Y-46393630D01*
X100151428Y-46393630D01*
X100103809Y-46369821D01*
X100080000Y-46346011D01*
X100056190Y-46298392D01*
X100056190Y-46179345D01*
X100080000Y-46107916D01*
X100056190Y-45893630D02*
X100460952Y-45893630D01*
X100508571Y-45869821D01*
X100532380Y-45846011D01*
X100556190Y-45798392D01*
X100556190Y-45703154D01*
X100532380Y-45655535D01*
X100508571Y-45631726D01*
X100460952Y-45607916D01*
X100056190Y-45607916D01*
X100532380Y-45393630D02*
X100556190Y-45322202D01*
X100556190Y-45203154D01*
X100532380Y-45155535D01*
X100508571Y-45131726D01*
X100460952Y-45107916D01*
X100413333Y-45107916D01*
X100365714Y-45131726D01*
X100341904Y-45155535D01*
X100318095Y-45203154D01*
X100294285Y-45298392D01*
X100270476Y-45346011D01*
X100246666Y-45369821D01*
X100199047Y-45393630D01*
X100151428Y-45393630D01*
X100103809Y-45369821D01*
X100080000Y-45346011D01*
X100056190Y-45298392D01*
X100056190Y-45179345D01*
X100080000Y-45107916D01*
X100722857Y-44774583D02*
X100008571Y-44774583D01*
X100508571Y-44131726D02*
X100532380Y-44155535D01*
X100556190Y-44226964D01*
X100556190Y-44274583D01*
X100532380Y-44346011D01*
X100484761Y-44393630D01*
X100437142Y-44417440D01*
X100341904Y-44441250D01*
X100270476Y-44441250D01*
X100175238Y-44417440D01*
X100127619Y-44393630D01*
X100080000Y-44346011D01*
X100056190Y-44274583D01*
X100056190Y-44226964D01*
X100080000Y-44155535D01*
X100103809Y-44131726D01*
X100556190Y-43917440D02*
X100056190Y-43917440D01*
X100294285Y-43917440D02*
X100294285Y-43631726D01*
X100556190Y-43631726D02*
X100056190Y-43631726D01*
X100556190Y-43107916D02*
X100318095Y-43274583D01*
X100556190Y-43393630D02*
X100056190Y-43393630D01*
X100056190Y-43203154D01*
X100080000Y-43155535D01*
X100103809Y-43131726D01*
X100151428Y-43107916D01*
X100222857Y-43107916D01*
X100270476Y-43131726D01*
X100294285Y-43155535D01*
X100318095Y-43203154D01*
X100318095Y-43393630D01*
X100294285Y-42893630D02*
X100294285Y-42726964D01*
X100556190Y-42655535D02*
X100556190Y-42893630D01*
X100056190Y-42893630D01*
X100056190Y-42655535D01*
X100556190Y-42441250D02*
X100056190Y-42441250D01*
X100556190Y-42155535D01*
X100056190Y-42155535D01*
X100722857Y-41798392D02*
X100008571Y-41798392D01*
X100508571Y-41155535D02*
X100532380Y-41179345D01*
X100556190Y-41250773D01*
X100556190Y-41298392D01*
X100532380Y-41369821D01*
X100484761Y-41417440D01*
X100437142Y-41441250D01*
X100341904Y-41465059D01*
X100270476Y-41465059D01*
X100175238Y-41441250D01*
X100127619Y-41417440D01*
X100080000Y-41369821D01*
X100056190Y-41298392D01*
X100056190Y-41250773D01*
X100080000Y-41179345D01*
X100103809Y-41155535D01*
X100556190Y-40941250D02*
X100056190Y-40941250D01*
X100294285Y-40941250D02*
X100294285Y-40655535D01*
X100556190Y-40655535D02*
X100056190Y-40655535D01*
X100556190Y-40131726D02*
X100318095Y-40298392D01*
X100556190Y-40417440D02*
X100056190Y-40417440D01*
X100056190Y-40226964D01*
X100080000Y-40179345D01*
X100103809Y-40155535D01*
X100151428Y-40131726D01*
X100222857Y-40131726D01*
X100270476Y-40155535D01*
X100294285Y-40179345D01*
X100318095Y-40226964D01*
X100318095Y-40417440D01*
X100056190Y-39822202D02*
X100056190Y-39774583D01*
X100080000Y-39726964D01*
X100103809Y-39703154D01*
X100151428Y-39679345D01*
X100246666Y-39655535D01*
X100365714Y-39655535D01*
X100460952Y-39679345D01*
X100508571Y-39703154D01*
X100532380Y-39726964D01*
X100556190Y-39774583D01*
X100556190Y-39822202D01*
X100532380Y-39869821D01*
X100508571Y-39893630D01*
X100460952Y-39917440D01*
X100365714Y-39941250D01*
X100246666Y-39941250D01*
X100151428Y-39917440D01*
X100103809Y-39893630D01*
X100080000Y-39869821D01*
X100056190Y-39822202D01*
X100722857Y-39322202D02*
X100008571Y-39322202D01*
X100556190Y-38965059D02*
X100056190Y-38965059D01*
X100056190Y-38631726D02*
X100056190Y-38536488D01*
X100080000Y-38488869D01*
X100127619Y-38441250D01*
X100222857Y-38417440D01*
X100389523Y-38417440D01*
X100484761Y-38441250D01*
X100532380Y-38488869D01*
X100556190Y-38536488D01*
X100556190Y-38631726D01*
X100532380Y-38679345D01*
X100484761Y-38726964D01*
X100389523Y-38750773D01*
X100222857Y-38750773D01*
X100127619Y-38726964D01*
X100080000Y-38679345D01*
X100056190Y-38631726D01*
X100056190Y-37988869D02*
X100056190Y-38084107D01*
X100080000Y-38131726D01*
X100103809Y-38155535D01*
X100175238Y-38203154D01*
X100270476Y-38226964D01*
X100460952Y-38226964D01*
X100508571Y-38203154D01*
X100532380Y-38179345D01*
X100556190Y-38131726D01*
X100556190Y-38036488D01*
X100532380Y-37988869D01*
X100508571Y-37965059D01*
X100460952Y-37941250D01*
X100341904Y-37941250D01*
X100294285Y-37965059D01*
X100270476Y-37988869D01*
X100246666Y-38036488D01*
X100246666Y-38131726D01*
X100270476Y-38179345D01*
X100294285Y-38203154D01*
X100341904Y-38226964D01*
X100722857Y-37607916D02*
X100008571Y-37607916D01*
X100556190Y-37250773D02*
X100056190Y-37250773D01*
X100056190Y-36917440D02*
X100056190Y-36822202D01*
X100080000Y-36774583D01*
X100127619Y-36726964D01*
X100222857Y-36703154D01*
X100389523Y-36703154D01*
X100484761Y-36726964D01*
X100532380Y-36774583D01*
X100556190Y-36822202D01*
X100556190Y-36917440D01*
X100532380Y-36965059D01*
X100484761Y-37012678D01*
X100389523Y-37036488D01*
X100222857Y-37036488D01*
X100127619Y-37012678D01*
X100080000Y-36965059D01*
X100056190Y-36917440D01*
X100222857Y-36274583D02*
X100556190Y-36274583D01*
X100032380Y-36393630D02*
X100389523Y-36512678D01*
X100389523Y-36203154D01*
X100722857Y-35893630D02*
X100008571Y-35893630D01*
X100222857Y-35536488D02*
X100556190Y-35536488D01*
X100270476Y-35536488D02*
X100246666Y-35512678D01*
X100222857Y-35465059D01*
X100222857Y-35393630D01*
X100246666Y-35346011D01*
X100294285Y-35322202D01*
X100556190Y-35322202D01*
X100556190Y-34798392D02*
X100318095Y-34965059D01*
X100556190Y-35084107D02*
X100056190Y-35084107D01*
X100056190Y-34893630D01*
X100080000Y-34846011D01*
X100103809Y-34822202D01*
X100151428Y-34798392D01*
X100222857Y-34798392D01*
X100270476Y-34822202D01*
X100294285Y-34846011D01*
X100318095Y-34893630D01*
X100318095Y-35084107D01*
X100056190Y-34655535D02*
X100056190Y-34369821D01*
X100556190Y-34512678D02*
X100056190Y-34512678D01*
X100532380Y-34226964D02*
X100556190Y-34155535D01*
X100556190Y-34036488D01*
X100532380Y-33988869D01*
X100508571Y-33965059D01*
X100460952Y-33941250D01*
X100413333Y-33941250D01*
X100365714Y-33965059D01*
X100341904Y-33988869D01*
X100318095Y-34036488D01*
X100294285Y-34131726D01*
X100270476Y-34179345D01*
X100246666Y-34203154D01*
X100199047Y-34226964D01*
X100151428Y-34226964D01*
X100103809Y-34203154D01*
X100080000Y-34179345D01*
X100056190Y-34131726D01*
X100056190Y-34012678D01*
X100080000Y-33941250D01*
X100722857Y-33607916D02*
X100008571Y-33607916D01*
X100222857Y-33250773D02*
X100556190Y-33250773D01*
X100270476Y-33250773D02*
X100246666Y-33226964D01*
X100222857Y-33179345D01*
X100222857Y-33107916D01*
X100246666Y-33060297D01*
X100294285Y-33036488D01*
X100556190Y-33036488D01*
X100556190Y-32798392D02*
X100056190Y-32798392D01*
X100056190Y-32679345D01*
X100080000Y-32607916D01*
X100127619Y-32560297D01*
X100175238Y-32536488D01*
X100270476Y-32512678D01*
X100341904Y-32512678D01*
X100437142Y-32536488D01*
X100484761Y-32560297D01*
X100532380Y-32607916D01*
X100556190Y-32679345D01*
X100556190Y-32798392D01*
X100056190Y-32369821D02*
X100056190Y-32084107D01*
X100556190Y-32226964D02*
X100056190Y-32226964D01*
X100556190Y-31631726D02*
X100318095Y-31798392D01*
X100556190Y-31917440D02*
X100056190Y-31917440D01*
X100056190Y-31726964D01*
X100080000Y-31679345D01*
X100103809Y-31655535D01*
X100151428Y-31631726D01*
X100222857Y-31631726D01*
X100270476Y-31655535D01*
X100294285Y-31679345D01*
X100318095Y-31726964D01*
X100318095Y-31917440D01*
X100722857Y-31298392D02*
X100008571Y-31298392D01*
X100222857Y-30941250D02*
X100556190Y-30941250D01*
X100270476Y-30941250D02*
X100246666Y-30917440D01*
X100222857Y-30869821D01*
X100222857Y-30798392D01*
X100246666Y-30750773D01*
X100294285Y-30726964D01*
X100556190Y-30726964D01*
X100556190Y-30203154D02*
X100318095Y-30369821D01*
X100556190Y-30488869D02*
X100056190Y-30488869D01*
X100056190Y-30298392D01*
X100080000Y-30250773D01*
X100103809Y-30226964D01*
X100151428Y-30203154D01*
X100222857Y-30203154D01*
X100270476Y-30226964D01*
X100294285Y-30250773D01*
X100318095Y-30298392D01*
X100318095Y-30488869D01*
X100556190Y-29988869D02*
X100056190Y-29988869D01*
X100905000Y-46560297D02*
X100881190Y-46607916D01*
X100881190Y-46679345D01*
X100905000Y-46750773D01*
X100952619Y-46798392D01*
X101000238Y-46822202D01*
X101095476Y-46846011D01*
X101166904Y-46846011D01*
X101262142Y-46822202D01*
X101309761Y-46798392D01*
X101357380Y-46750773D01*
X101381190Y-46679345D01*
X101381190Y-46631726D01*
X101357380Y-46560297D01*
X101333571Y-46536488D01*
X101166904Y-46536488D01*
X101166904Y-46631726D01*
X101381190Y-46322202D02*
X100881190Y-46322202D01*
X101381190Y-46036488D01*
X100881190Y-46036488D01*
X101381190Y-45798392D02*
X100881190Y-45798392D01*
X100881190Y-45679345D01*
X100905000Y-45607916D01*
X100952619Y-45560297D01*
X101000238Y-45536488D01*
X101095476Y-45512678D01*
X101166904Y-45512678D01*
X101262142Y-45536488D01*
X101309761Y-45560297D01*
X101357380Y-45607916D01*
X101381190Y-45679345D01*
X101381190Y-45798392D01*
X101547857Y-45179345D02*
X100833571Y-45179345D01*
X101357380Y-44846011D02*
X101381190Y-44774583D01*
X101381190Y-44655535D01*
X101357380Y-44607916D01*
X101333571Y-44584107D01*
X101285952Y-44560297D01*
X101238333Y-44560297D01*
X101190714Y-44584107D01*
X101166904Y-44607916D01*
X101143095Y-44655535D01*
X101119285Y-44750773D01*
X101095476Y-44798392D01*
X101071666Y-44822202D01*
X101024047Y-44846011D01*
X100976428Y-44846011D01*
X100928809Y-44822202D01*
X100905000Y-44798392D01*
X100881190Y-44750773D01*
X100881190Y-44631726D01*
X100905000Y-44560297D01*
X100881190Y-44346011D02*
X101285952Y-44346011D01*
X101333571Y-44322202D01*
X101357380Y-44298392D01*
X101381190Y-44250773D01*
X101381190Y-44155535D01*
X101357380Y-44107916D01*
X101333571Y-44084107D01*
X101285952Y-44060297D01*
X100881190Y-44060297D01*
X101357380Y-43846011D02*
X101381190Y-43774583D01*
X101381190Y-43655535D01*
X101357380Y-43607916D01*
X101333571Y-43584107D01*
X101285952Y-43560297D01*
X101238333Y-43560297D01*
X101190714Y-43584107D01*
X101166904Y-43607916D01*
X101143095Y-43655535D01*
X101119285Y-43750773D01*
X101095476Y-43798392D01*
X101071666Y-43822202D01*
X101024047Y-43846011D01*
X100976428Y-43846011D01*
X100928809Y-43822202D01*
X100905000Y-43798392D01*
X100881190Y-43750773D01*
X100881190Y-43631726D01*
X100905000Y-43560297D01*
X101547857Y-43226964D02*
X100833571Y-43226964D01*
X101333571Y-42584107D02*
X101357380Y-42607916D01*
X101381190Y-42679345D01*
X101381190Y-42726964D01*
X101357380Y-42798392D01*
X101309761Y-42846011D01*
X101262142Y-42869821D01*
X101166904Y-42893630D01*
X101095476Y-42893630D01*
X101000238Y-42869821D01*
X100952619Y-42846011D01*
X100905000Y-42798392D01*
X100881190Y-42726964D01*
X100881190Y-42679345D01*
X100905000Y-42607916D01*
X100928809Y-42584107D01*
X101381190Y-42369821D02*
X100881190Y-42369821D01*
X101119285Y-42369821D02*
X101119285Y-42084107D01*
X101381190Y-42084107D02*
X100881190Y-42084107D01*
X101381190Y-41560297D02*
X101143095Y-41726964D01*
X101381190Y-41846011D02*
X100881190Y-41846011D01*
X100881190Y-41655535D01*
X100905000Y-41607916D01*
X100928809Y-41584107D01*
X100976428Y-41560297D01*
X101047857Y-41560297D01*
X101095476Y-41584107D01*
X101119285Y-41607916D01*
X101143095Y-41655535D01*
X101143095Y-41846011D01*
X101381190Y-41084107D02*
X101381190Y-41369821D01*
X101381190Y-41226964D02*
X100881190Y-41226964D01*
X100952619Y-41274583D01*
X101000238Y-41322202D01*
X101024047Y-41369821D01*
X101547857Y-40750773D02*
X100833571Y-40750773D01*
X101381190Y-40393630D02*
X100881190Y-40393630D01*
X100881190Y-40060297D02*
X100881190Y-39965059D01*
X100905000Y-39917440D01*
X100952619Y-39869821D01*
X101047857Y-39846011D01*
X101214523Y-39846011D01*
X101309761Y-39869821D01*
X101357380Y-39917440D01*
X101381190Y-39965059D01*
X101381190Y-40060297D01*
X101357380Y-40107916D01*
X101309761Y-40155535D01*
X101214523Y-40179345D01*
X101047857Y-40179345D01*
X100952619Y-40155535D01*
X100905000Y-40107916D01*
X100881190Y-40060297D01*
X100881190Y-39679345D02*
X100881190Y-39369821D01*
X101071666Y-39536488D01*
X101071666Y-39465059D01*
X101095476Y-39417440D01*
X101119285Y-39393630D01*
X101166904Y-39369821D01*
X101285952Y-39369821D01*
X101333571Y-39393630D01*
X101357380Y-39417440D01*
X101381190Y-39465059D01*
X101381190Y-39607916D01*
X101357380Y-39655535D01*
X101333571Y-39679345D01*
X101547857Y-39036488D02*
X100833571Y-39036488D01*
X101381190Y-38679345D02*
X100881190Y-38679345D01*
X100881190Y-38346011D02*
X100881190Y-38250773D01*
X100905000Y-38203154D01*
X100952619Y-38155535D01*
X101047857Y-38131726D01*
X101214523Y-38131726D01*
X101309761Y-38155535D01*
X101357380Y-38203154D01*
X101381190Y-38250773D01*
X101381190Y-38346011D01*
X101357380Y-38393630D01*
X101309761Y-38441250D01*
X101214523Y-38465059D01*
X101047857Y-38465059D01*
X100952619Y-38441250D01*
X100905000Y-38393630D01*
X100881190Y-38346011D01*
X100881190Y-37679345D02*
X100881190Y-37917440D01*
X101119285Y-37941250D01*
X101095476Y-37917440D01*
X101071666Y-37869821D01*
X101071666Y-37750773D01*
X101095476Y-37703154D01*
X101119285Y-37679345D01*
X101166904Y-37655535D01*
X101285952Y-37655535D01*
X101333571Y-37679345D01*
X101357380Y-37703154D01*
X101381190Y-37750773D01*
X101381190Y-37869821D01*
X101357380Y-37917440D01*
X101333571Y-37941250D01*
X101547857Y-37322202D02*
X100833571Y-37322202D01*
X101047857Y-36965059D02*
X101381190Y-36965059D01*
X101095476Y-36965059D02*
X101071666Y-36941250D01*
X101047857Y-36893630D01*
X101047857Y-36822202D01*
X101071666Y-36774583D01*
X101119285Y-36750773D01*
X101381190Y-36750773D01*
X101333571Y-36226964D02*
X101357380Y-36250773D01*
X101381190Y-36322202D01*
X101381190Y-36369821D01*
X101357380Y-36441250D01*
X101309761Y-36488869D01*
X101262142Y-36512678D01*
X101166904Y-36536488D01*
X101095476Y-36536488D01*
X101000238Y-36512678D01*
X100952619Y-36488869D01*
X100905000Y-36441250D01*
X100881190Y-36369821D01*
X100881190Y-36322202D01*
X100905000Y-36250773D01*
X100928809Y-36226964D01*
X100881190Y-36084107D02*
X100881190Y-35798392D01*
X101381190Y-35941250D02*
X100881190Y-35941250D01*
X101357380Y-35655535D02*
X101381190Y-35584107D01*
X101381190Y-35465059D01*
X101357380Y-35417440D01*
X101333571Y-35393630D01*
X101285952Y-35369821D01*
X101238333Y-35369821D01*
X101190714Y-35393630D01*
X101166904Y-35417440D01*
X101143095Y-35465059D01*
X101119285Y-35560297D01*
X101095476Y-35607916D01*
X101071666Y-35631726D01*
X101024047Y-35655535D01*
X100976428Y-35655535D01*
X100928809Y-35631726D01*
X100905000Y-35607916D01*
X100881190Y-35560297D01*
X100881190Y-35441250D01*
X100905000Y-35369821D01*
X101547857Y-35036488D02*
X100833571Y-35036488D01*
X101047857Y-34679345D02*
X101381190Y-34679345D01*
X101095476Y-34679345D02*
X101071666Y-34655535D01*
X101047857Y-34607916D01*
X101047857Y-34536488D01*
X101071666Y-34488869D01*
X101119285Y-34465059D01*
X101381190Y-34465059D01*
X101381190Y-34226964D02*
X100881190Y-34226964D01*
X100881190Y-34107916D01*
X100905000Y-34036488D01*
X100952619Y-33988869D01*
X101000238Y-33965059D01*
X101095476Y-33941250D01*
X101166904Y-33941250D01*
X101262142Y-33965059D01*
X101309761Y-33988869D01*
X101357380Y-34036488D01*
X101381190Y-34107916D01*
X101381190Y-34226964D01*
X101357380Y-33750773D02*
X101381190Y-33679345D01*
X101381190Y-33560297D01*
X101357380Y-33512678D01*
X101333571Y-33488869D01*
X101285952Y-33465059D01*
X101238333Y-33465059D01*
X101190714Y-33488869D01*
X101166904Y-33512678D01*
X101143095Y-33560297D01*
X101119285Y-33655535D01*
X101095476Y-33703154D01*
X101071666Y-33726964D01*
X101024047Y-33750773D01*
X100976428Y-33750773D01*
X100928809Y-33726964D01*
X100905000Y-33703154D01*
X100881190Y-33655535D01*
X100881190Y-33536488D01*
X100905000Y-33465059D01*
X101381190Y-32965059D02*
X101143095Y-33131726D01*
X101381190Y-33250773D02*
X100881190Y-33250773D01*
X100881190Y-33060297D01*
X100905000Y-33012678D01*
X100928809Y-32988869D01*
X100976428Y-32965059D01*
X101047857Y-32965059D01*
X101095476Y-32988869D01*
X101119285Y-33012678D01*
X101143095Y-33060297D01*
X101143095Y-33250773D01*
X101547857Y-32631726D02*
X100833571Y-32631726D01*
X101047857Y-32274583D02*
X101381190Y-32274583D01*
X101095476Y-32274583D02*
X101071666Y-32250773D01*
X101047857Y-32203154D01*
X101047857Y-32131726D01*
X101071666Y-32084107D01*
X101119285Y-32060297D01*
X101381190Y-32060297D01*
X101381190Y-31822202D02*
X100881190Y-31822202D01*
X100881190Y-31703154D01*
X100905000Y-31631726D01*
X100952619Y-31584107D01*
X101000238Y-31560297D01*
X101095476Y-31536488D01*
X101166904Y-31536488D01*
X101262142Y-31560297D01*
X101309761Y-31584107D01*
X101357380Y-31631726D01*
X101381190Y-31703154D01*
X101381190Y-31822202D01*
X101333571Y-31036488D02*
X101357380Y-31060297D01*
X101381190Y-31131726D01*
X101381190Y-31179345D01*
X101357380Y-31250773D01*
X101309761Y-31298392D01*
X101262142Y-31322202D01*
X101166904Y-31346011D01*
X101095476Y-31346011D01*
X101000238Y-31322202D01*
X100952619Y-31298392D01*
X100905000Y-31250773D01*
X100881190Y-31179345D01*
X100881190Y-31131726D01*
X100905000Y-31060297D01*
X100928809Y-31036488D01*
X101381190Y-30822202D02*
X100881190Y-30822202D01*
X100881190Y-30703154D01*
X100905000Y-30631726D01*
X100952619Y-30584107D01*
X101000238Y-30560297D01*
X101095476Y-30536488D01*
X101166904Y-30536488D01*
X101262142Y-30560297D01*
X101309761Y-30584107D01*
X101357380Y-30631726D01*
X101381190Y-30703154D01*
X101381190Y-30822202D01*
X84918809Y-68814761D02*
X84514047Y-68814761D01*
X84466428Y-68838571D01*
X84442619Y-68862380D01*
X84418809Y-68910000D01*
X84418809Y-69005238D01*
X84442619Y-69052857D01*
X84466428Y-69076666D01*
X84514047Y-69100476D01*
X84918809Y-69100476D01*
X84442619Y-69314761D02*
X84418809Y-69386190D01*
X84418809Y-69505238D01*
X84442619Y-69552857D01*
X84466428Y-69576666D01*
X84514047Y-69600476D01*
X84561666Y-69600476D01*
X84609285Y-69576666D01*
X84633095Y-69552857D01*
X84656904Y-69505238D01*
X84680714Y-69410000D01*
X84704523Y-69362380D01*
X84728333Y-69338571D01*
X84775952Y-69314761D01*
X84823571Y-69314761D01*
X84871190Y-69338571D01*
X84895000Y-69362380D01*
X84918809Y-69410000D01*
X84918809Y-69529047D01*
X84895000Y-69600476D01*
X84680714Y-69981428D02*
X84656904Y-70052857D01*
X84633095Y-70076666D01*
X84585476Y-70100476D01*
X84514047Y-70100476D01*
X84466428Y-70076666D01*
X84442619Y-70052857D01*
X84418809Y-70005238D01*
X84418809Y-69814761D01*
X84918809Y-69814761D01*
X84918809Y-69981428D01*
X84895000Y-70029047D01*
X84871190Y-70052857D01*
X84823571Y-70076666D01*
X84775952Y-70076666D01*
X84728333Y-70052857D01*
X84704523Y-70029047D01*
X84680714Y-69981428D01*
X84680714Y-69814761D01*
X84918809Y-70624285D02*
X84918809Y-70910000D01*
X84418809Y-70767142D02*
X84918809Y-70767142D01*
X84918809Y-71005238D02*
X84918809Y-71290952D01*
X84418809Y-71148095D02*
X84918809Y-71148095D01*
X84418809Y-71695714D02*
X84418809Y-71457619D01*
X84918809Y-71457619D01*
X84942619Y-72600476D02*
X84299761Y-72171904D01*
X84418809Y-73433809D02*
X84656904Y-73267142D01*
X84418809Y-73148095D02*
X84918809Y-73148095D01*
X84918809Y-73338571D01*
X84895000Y-73386190D01*
X84871190Y-73410000D01*
X84823571Y-73433809D01*
X84752142Y-73433809D01*
X84704523Y-73410000D01*
X84680714Y-73386190D01*
X84656904Y-73338571D01*
X84656904Y-73148095D01*
X84442619Y-73624285D02*
X84418809Y-73695714D01*
X84418809Y-73814761D01*
X84442619Y-73862380D01*
X84466428Y-73886190D01*
X84514047Y-73910000D01*
X84561666Y-73910000D01*
X84609285Y-73886190D01*
X84633095Y-73862380D01*
X84656904Y-73814761D01*
X84680714Y-73719523D01*
X84704523Y-73671904D01*
X84728333Y-73648095D01*
X84775952Y-73624285D01*
X84823571Y-73624285D01*
X84871190Y-73648095D01*
X84895000Y-73671904D01*
X84918809Y-73719523D01*
X84918809Y-73838571D01*
X84895000Y-73910000D01*
X84752142Y-74338571D02*
X84418809Y-74338571D01*
X84942619Y-74219523D02*
X84585476Y-74100476D01*
X84585476Y-74410000D01*
X84704523Y-74671904D02*
X84728333Y-74624285D01*
X84752142Y-74600476D01*
X84799761Y-74576666D01*
X84823571Y-74576666D01*
X84871190Y-74600476D01*
X84895000Y-74624285D01*
X84918809Y-74671904D01*
X84918809Y-74767142D01*
X84895000Y-74814761D01*
X84871190Y-74838571D01*
X84823571Y-74862380D01*
X84799761Y-74862380D01*
X84752142Y-74838571D01*
X84728333Y-74814761D01*
X84704523Y-74767142D01*
X84704523Y-74671904D01*
X84680714Y-74624285D01*
X84656904Y-74600476D01*
X84609285Y-74576666D01*
X84514047Y-74576666D01*
X84466428Y-74600476D01*
X84442619Y-74624285D01*
X84418809Y-74671904D01*
X84418809Y-74767142D01*
X84442619Y-74814761D01*
X84466428Y-74838571D01*
X84514047Y-74862380D01*
X84609285Y-74862380D01*
X84656904Y-74838571D01*
X84680714Y-74814761D01*
X84704523Y-74767142D01*
X84918809Y-75314761D02*
X84918809Y-75076666D01*
X84680714Y-75052857D01*
X84704523Y-75076666D01*
X84728333Y-75124285D01*
X84728333Y-75243333D01*
X84704523Y-75290952D01*
X84680714Y-75314761D01*
X84633095Y-75338571D01*
X84514047Y-75338571D01*
X84466428Y-75314761D01*
X84442619Y-75290952D01*
X84418809Y-75243333D01*
X84418809Y-75124285D01*
X84442619Y-75076666D01*
X84466428Y-75052857D01*
X84561666Y-75910000D02*
X84561666Y-76148095D01*
X84418809Y-75862380D02*
X84918809Y-76029047D01*
X84418809Y-76195714D01*
X84418809Y-76576666D02*
X84918809Y-76576666D01*
X84442619Y-76576666D02*
X84418809Y-76529047D01*
X84418809Y-76433809D01*
X84442619Y-76386190D01*
X84466428Y-76362380D01*
X84514047Y-76338571D01*
X84656904Y-76338571D01*
X84704523Y-76362380D01*
X84728333Y-76386190D01*
X84752142Y-76433809D01*
X84752142Y-76529047D01*
X84728333Y-76576666D01*
X84418809Y-77029047D02*
X84680714Y-77029047D01*
X84728333Y-77005238D01*
X84752142Y-76957619D01*
X84752142Y-76862380D01*
X84728333Y-76814761D01*
X84442619Y-77029047D02*
X84418809Y-76981428D01*
X84418809Y-76862380D01*
X84442619Y-76814761D01*
X84490238Y-76790952D01*
X84537857Y-76790952D01*
X84585476Y-76814761D01*
X84609285Y-76862380D01*
X84609285Y-76981428D01*
X84633095Y-77029047D01*
X84752142Y-77267142D02*
X84252142Y-77267142D01*
X84728333Y-77267142D02*
X84752142Y-77314761D01*
X84752142Y-77410000D01*
X84728333Y-77457619D01*
X84704523Y-77481428D01*
X84656904Y-77505238D01*
X84514047Y-77505238D01*
X84466428Y-77481428D01*
X84442619Y-77457619D01*
X84418809Y-77410000D01*
X84418809Y-77314761D01*
X84442619Y-77267142D01*
X84752142Y-77648095D02*
X84752142Y-77838571D01*
X84918809Y-77719523D02*
X84490238Y-77719523D01*
X84442619Y-77743333D01*
X84418809Y-77790952D01*
X84418809Y-77838571D01*
X84442619Y-78195714D02*
X84418809Y-78148095D01*
X84418809Y-78052857D01*
X84442619Y-78005238D01*
X84490238Y-77981428D01*
X84680714Y-77981428D01*
X84728333Y-78005238D01*
X84752142Y-78052857D01*
X84752142Y-78148095D01*
X84728333Y-78195714D01*
X84680714Y-78219523D01*
X84633095Y-78219523D01*
X84585476Y-77981428D01*
X84418809Y-78433809D02*
X84752142Y-78433809D01*
X84656904Y-78433809D02*
X84704523Y-78457619D01*
X84728333Y-78481428D01*
X84752142Y-78529047D01*
X84752142Y-78576666D01*
X83593809Y-70112380D02*
X84093809Y-70112380D01*
X83593809Y-70326666D02*
X83855714Y-70326666D01*
X83903333Y-70302857D01*
X83927142Y-70255238D01*
X83927142Y-70183809D01*
X83903333Y-70136190D01*
X83879523Y-70112380D01*
X83927142Y-70493333D02*
X83927142Y-70683809D01*
X84093809Y-70564761D02*
X83665238Y-70564761D01*
X83617619Y-70588571D01*
X83593809Y-70636190D01*
X83593809Y-70683809D01*
X83927142Y-70779047D02*
X83927142Y-70969523D01*
X84093809Y-70850476D02*
X83665238Y-70850476D01*
X83617619Y-70874285D01*
X83593809Y-70921904D01*
X83593809Y-70969523D01*
X83927142Y-71136190D02*
X83427142Y-71136190D01*
X83903333Y-71136190D02*
X83927142Y-71183809D01*
X83927142Y-71279047D01*
X83903333Y-71326666D01*
X83879523Y-71350476D01*
X83831904Y-71374285D01*
X83689047Y-71374285D01*
X83641428Y-71350476D01*
X83617619Y-71326666D01*
X83593809Y-71279047D01*
X83593809Y-71183809D01*
X83617619Y-71136190D01*
X83617619Y-71564761D02*
X83593809Y-71612380D01*
X83593809Y-71707619D01*
X83617619Y-71755238D01*
X83665238Y-71779047D01*
X83689047Y-71779047D01*
X83736666Y-71755238D01*
X83760476Y-71707619D01*
X83760476Y-71636190D01*
X83784285Y-71588571D01*
X83831904Y-71564761D01*
X83855714Y-71564761D01*
X83903333Y-71588571D01*
X83927142Y-71636190D01*
X83927142Y-71707619D01*
X83903333Y-71755238D01*
X83641428Y-71993333D02*
X83617619Y-72017142D01*
X83593809Y-71993333D01*
X83617619Y-71969523D01*
X83641428Y-71993333D01*
X83593809Y-71993333D01*
X83903333Y-71993333D02*
X83879523Y-72017142D01*
X83855714Y-71993333D01*
X83879523Y-71969523D01*
X83903333Y-71993333D01*
X83855714Y-71993333D01*
X84117619Y-72588571D02*
X83474761Y-72160000D01*
X84117619Y-73112380D02*
X83474761Y-72683809D01*
X83927142Y-73231428D02*
X83593809Y-73326666D01*
X83831904Y-73421904D01*
X83593809Y-73517142D01*
X83927142Y-73612380D01*
X83927142Y-73755238D02*
X83593809Y-73850476D01*
X83831904Y-73945714D01*
X83593809Y-74040952D01*
X83927142Y-74136190D01*
X83927142Y-74279047D02*
X83593809Y-74374285D01*
X83831904Y-74469523D01*
X83593809Y-74564761D01*
X83927142Y-74660000D01*
X83641428Y-74850476D02*
X83617619Y-74874285D01*
X83593809Y-74850476D01*
X83617619Y-74826666D01*
X83641428Y-74850476D01*
X83593809Y-74850476D01*
X83927142Y-75017142D02*
X83927142Y-75207619D01*
X84093809Y-75088571D02*
X83665238Y-75088571D01*
X83617619Y-75112380D01*
X83593809Y-75160000D01*
X83593809Y-75207619D01*
X83617619Y-75350476D02*
X83593809Y-75398095D01*
X83593809Y-75493333D01*
X83617619Y-75540952D01*
X83665238Y-75564761D01*
X83689047Y-75564761D01*
X83736666Y-75540952D01*
X83760476Y-75493333D01*
X83760476Y-75421904D01*
X83784285Y-75374285D01*
X83831904Y-75350476D01*
X83855714Y-75350476D01*
X83903333Y-75374285D01*
X83927142Y-75421904D01*
X83927142Y-75493333D01*
X83903333Y-75540952D01*
X83927142Y-75779047D02*
X83427142Y-75779047D01*
X83903333Y-75779047D02*
X83927142Y-75826666D01*
X83927142Y-75921904D01*
X83903333Y-75969523D01*
X83879523Y-75993333D01*
X83831904Y-76017142D01*
X83689047Y-76017142D01*
X83641428Y-75993333D01*
X83617619Y-75969523D01*
X83593809Y-75921904D01*
X83593809Y-75826666D01*
X83617619Y-75779047D01*
X83593809Y-76231428D02*
X83927142Y-76231428D01*
X84093809Y-76231428D02*
X84070000Y-76207619D01*
X84046190Y-76231428D01*
X84070000Y-76255238D01*
X84093809Y-76231428D01*
X84046190Y-76231428D01*
X83641428Y-76469523D02*
X83617619Y-76493333D01*
X83593809Y-76469523D01*
X83617619Y-76445714D01*
X83641428Y-76469523D01*
X83593809Y-76469523D01*
X83593809Y-76921904D02*
X83855714Y-76921904D01*
X83903333Y-76898095D01*
X83927142Y-76850476D01*
X83927142Y-76755238D01*
X83903333Y-76707619D01*
X83617619Y-76921904D02*
X83593809Y-76874285D01*
X83593809Y-76755238D01*
X83617619Y-76707619D01*
X83665238Y-76683809D01*
X83712857Y-76683809D01*
X83760476Y-76707619D01*
X83784285Y-76755238D01*
X83784285Y-76874285D01*
X83808095Y-76921904D01*
X83927142Y-77088571D02*
X83927142Y-77279047D01*
X84093809Y-77160000D02*
X83665238Y-77160000D01*
X83617619Y-77183809D01*
X83593809Y-77231428D01*
X83593809Y-77279047D01*
X83245000Y-61695714D02*
X83268809Y-61648095D01*
X83268809Y-61576666D01*
X83245000Y-61505238D01*
X83197380Y-61457619D01*
X83149761Y-61433809D01*
X83054523Y-61410000D01*
X82983095Y-61410000D01*
X82887857Y-61433809D01*
X82840238Y-61457619D01*
X82792619Y-61505238D01*
X82768809Y-61576666D01*
X82768809Y-61624285D01*
X82792619Y-61695714D01*
X82816428Y-61719523D01*
X82983095Y-61719523D01*
X82983095Y-61624285D01*
X82768809Y-61933809D02*
X83102142Y-61933809D01*
X83268809Y-61933809D02*
X83245000Y-61910000D01*
X83221190Y-61933809D01*
X83245000Y-61957619D01*
X83268809Y-61933809D01*
X83221190Y-61933809D01*
X83102142Y-62100476D02*
X83102142Y-62290952D01*
X83268809Y-62171904D02*
X82840238Y-62171904D01*
X82792619Y-62195714D01*
X82768809Y-62243333D01*
X82768809Y-62290952D01*
X82768809Y-62457619D02*
X83268809Y-62457619D01*
X83030714Y-62457619D02*
X83030714Y-62743333D01*
X82768809Y-62743333D02*
X83268809Y-62743333D01*
X83102142Y-63195714D02*
X82768809Y-63195714D01*
X83102142Y-62981428D02*
X82840238Y-62981428D01*
X82792619Y-63005238D01*
X82768809Y-63052857D01*
X82768809Y-63124285D01*
X82792619Y-63171904D01*
X82816428Y-63195714D01*
X82768809Y-63433809D02*
X83268809Y-63433809D01*
X83078333Y-63433809D02*
X83102142Y-63481428D01*
X83102142Y-63576666D01*
X83078333Y-63624285D01*
X83054523Y-63648095D01*
X83006904Y-63671904D01*
X82864047Y-63671904D01*
X82816428Y-63648095D01*
X82792619Y-63624285D01*
X82768809Y-63576666D01*
X82768809Y-63481428D01*
X82792619Y-63433809D01*
X82816428Y-63886190D02*
X82792619Y-63910000D01*
X82768809Y-63886190D01*
X82792619Y-63862380D01*
X82816428Y-63886190D01*
X82768809Y-63886190D01*
X83078333Y-63886190D02*
X83054523Y-63910000D01*
X83030714Y-63886190D01*
X83054523Y-63862380D01*
X83078333Y-63886190D01*
X83030714Y-63886190D01*
X82768809Y-64505238D02*
X83268809Y-64505238D01*
X82768809Y-64719523D02*
X83030714Y-64719523D01*
X83078333Y-64695714D01*
X83102142Y-64648095D01*
X83102142Y-64576666D01*
X83078333Y-64529047D01*
X83054523Y-64505238D01*
X83102142Y-64886190D02*
X83102142Y-65076666D01*
X83268809Y-64957619D02*
X82840238Y-64957619D01*
X82792619Y-64981428D01*
X82768809Y-65029047D01*
X82768809Y-65076666D01*
X83102142Y-65171904D02*
X83102142Y-65362380D01*
X83268809Y-65243333D02*
X82840238Y-65243333D01*
X82792619Y-65267142D01*
X82768809Y-65314761D01*
X82768809Y-65362380D01*
X83102142Y-65529047D02*
X82602142Y-65529047D01*
X83078333Y-65529047D02*
X83102142Y-65576666D01*
X83102142Y-65671904D01*
X83078333Y-65719523D01*
X83054523Y-65743333D01*
X83006904Y-65767142D01*
X82864047Y-65767142D01*
X82816428Y-65743333D01*
X82792619Y-65719523D01*
X82768809Y-65671904D01*
X82768809Y-65576666D01*
X82792619Y-65529047D01*
X82792619Y-65957619D02*
X82768809Y-66005238D01*
X82768809Y-66100476D01*
X82792619Y-66148095D01*
X82840238Y-66171904D01*
X82864047Y-66171904D01*
X82911666Y-66148095D01*
X82935476Y-66100476D01*
X82935476Y-66029047D01*
X82959285Y-65981428D01*
X83006904Y-65957619D01*
X83030714Y-65957619D01*
X83078333Y-65981428D01*
X83102142Y-66029047D01*
X83102142Y-66100476D01*
X83078333Y-66148095D01*
X82816428Y-66386190D02*
X82792619Y-66410000D01*
X82768809Y-66386190D01*
X82792619Y-66362380D01*
X82816428Y-66386190D01*
X82768809Y-66386190D01*
X83078333Y-66386190D02*
X83054523Y-66410000D01*
X83030714Y-66386190D01*
X83054523Y-66362380D01*
X83078333Y-66386190D01*
X83030714Y-66386190D01*
X83292619Y-66981428D02*
X82649761Y-66552857D01*
X83292619Y-67505238D02*
X82649761Y-67076666D01*
X83102142Y-67886190D02*
X82697380Y-67886190D01*
X82649761Y-67862380D01*
X82625952Y-67838571D01*
X82602142Y-67790952D01*
X82602142Y-67719523D01*
X82625952Y-67671904D01*
X82792619Y-67886190D02*
X82768809Y-67838571D01*
X82768809Y-67743333D01*
X82792619Y-67695714D01*
X82816428Y-67671904D01*
X82864047Y-67648095D01*
X83006904Y-67648095D01*
X83054523Y-67671904D01*
X83078333Y-67695714D01*
X83102142Y-67743333D01*
X83102142Y-67838571D01*
X83078333Y-67886190D01*
X82768809Y-68124285D02*
X83102142Y-68124285D01*
X83268809Y-68124285D02*
X83245000Y-68100476D01*
X83221190Y-68124285D01*
X83245000Y-68148095D01*
X83268809Y-68124285D01*
X83221190Y-68124285D01*
X83102142Y-68290952D02*
X83102142Y-68481428D01*
X83268809Y-68362380D02*
X82840238Y-68362380D01*
X82792619Y-68386190D01*
X82768809Y-68433809D01*
X82768809Y-68481428D01*
X82768809Y-68648095D02*
X83268809Y-68648095D01*
X82768809Y-68862380D02*
X83030714Y-68862380D01*
X83078333Y-68838571D01*
X83102142Y-68790952D01*
X83102142Y-68719523D01*
X83078333Y-68671904D01*
X83054523Y-68648095D01*
X83102142Y-69314761D02*
X82768809Y-69314761D01*
X83102142Y-69100476D02*
X82840238Y-69100476D01*
X82792619Y-69124285D01*
X82768809Y-69171904D01*
X82768809Y-69243333D01*
X82792619Y-69290952D01*
X82816428Y-69314761D01*
X82768809Y-69552857D02*
X83268809Y-69552857D01*
X83078333Y-69552857D02*
X83102142Y-69600476D01*
X83102142Y-69695714D01*
X83078333Y-69743333D01*
X83054523Y-69767142D01*
X83006904Y-69790952D01*
X82864047Y-69790952D01*
X82816428Y-69767142D01*
X82792619Y-69743333D01*
X82768809Y-69695714D01*
X82768809Y-69600476D01*
X82792619Y-69552857D01*
X82816428Y-70005238D02*
X82792619Y-70029047D01*
X82768809Y-70005238D01*
X82792619Y-69981428D01*
X82816428Y-70005238D01*
X82768809Y-70005238D01*
X82792619Y-70457619D02*
X82768809Y-70410000D01*
X82768809Y-70314761D01*
X82792619Y-70267142D01*
X82816428Y-70243333D01*
X82864047Y-70219523D01*
X83006904Y-70219523D01*
X83054523Y-70243333D01*
X83078333Y-70267142D01*
X83102142Y-70314761D01*
X83102142Y-70410000D01*
X83078333Y-70457619D01*
X82768809Y-70743333D02*
X82792619Y-70695714D01*
X82816428Y-70671904D01*
X82864047Y-70648095D01*
X83006904Y-70648095D01*
X83054523Y-70671904D01*
X83078333Y-70695714D01*
X83102142Y-70743333D01*
X83102142Y-70814761D01*
X83078333Y-70862380D01*
X83054523Y-70886190D01*
X83006904Y-70910000D01*
X82864047Y-70910000D01*
X82816428Y-70886190D01*
X82792619Y-70862380D01*
X82768809Y-70814761D01*
X82768809Y-70743333D01*
X82768809Y-71124285D02*
X83102142Y-71124285D01*
X83054523Y-71124285D02*
X83078333Y-71148095D01*
X83102142Y-71195714D01*
X83102142Y-71267142D01*
X83078333Y-71314761D01*
X83030714Y-71338571D01*
X82768809Y-71338571D01*
X83030714Y-71338571D02*
X83078333Y-71362380D01*
X83102142Y-71410000D01*
X83102142Y-71481428D01*
X83078333Y-71529047D01*
X83030714Y-71552857D01*
X82768809Y-71552857D01*
X83292619Y-72148095D02*
X82649761Y-71719523D01*
X83102142Y-72243333D02*
X83102142Y-72433809D01*
X83268809Y-72314761D02*
X82840238Y-72314761D01*
X82792619Y-72338571D01*
X82768809Y-72386190D01*
X82768809Y-72433809D01*
X82792619Y-72576666D02*
X82768809Y-72624285D01*
X82768809Y-72719523D01*
X82792619Y-72767142D01*
X82840238Y-72790952D01*
X82864047Y-72790952D01*
X82911666Y-72767142D01*
X82935476Y-72719523D01*
X82935476Y-72648095D01*
X82959285Y-72600476D01*
X83006904Y-72576666D01*
X83030714Y-72576666D01*
X83078333Y-72600476D01*
X83102142Y-72648095D01*
X83102142Y-72719523D01*
X83078333Y-72767142D01*
X83102142Y-73005238D02*
X82602142Y-73005238D01*
X83078333Y-73005238D02*
X83102142Y-73052857D01*
X83102142Y-73148095D01*
X83078333Y-73195714D01*
X83054523Y-73219523D01*
X83006904Y-73243333D01*
X82864047Y-73243333D01*
X82816428Y-73219523D01*
X82792619Y-73195714D01*
X82768809Y-73148095D01*
X82768809Y-73052857D01*
X82792619Y-73005238D01*
X82792619Y-73433809D02*
X82768809Y-73481428D01*
X82768809Y-73576666D01*
X82792619Y-73624285D01*
X82840238Y-73648095D01*
X82864047Y-73648095D01*
X82911666Y-73624285D01*
X82935476Y-73576666D01*
X82935476Y-73505238D01*
X82959285Y-73457619D01*
X83006904Y-73433809D01*
X83030714Y-73433809D01*
X83078333Y-73457619D01*
X83102142Y-73505238D01*
X83102142Y-73576666D01*
X83078333Y-73624285D01*
X83102142Y-73862380D02*
X82602142Y-73862380D01*
X83078333Y-73862380D02*
X83102142Y-73910000D01*
X83102142Y-74005238D01*
X83078333Y-74052857D01*
X83054523Y-74076666D01*
X83006904Y-74100476D01*
X82864047Y-74100476D01*
X82816428Y-74076666D01*
X82792619Y-74052857D01*
X82768809Y-74005238D01*
X82768809Y-73910000D01*
X82792619Y-73862380D01*
X82768809Y-74314761D02*
X83102142Y-74314761D01*
X83268809Y-74314761D02*
X83245000Y-74290952D01*
X83221190Y-74314761D01*
X83245000Y-74338571D01*
X83268809Y-74314761D01*
X83221190Y-74314761D01*
X83292619Y-74910000D02*
X82649761Y-74481428D01*
X82792619Y-75290952D02*
X82768809Y-75243333D01*
X82768809Y-75148095D01*
X82792619Y-75100476D01*
X82816428Y-75076666D01*
X82864047Y-75052857D01*
X83006904Y-75052857D01*
X83054523Y-75076666D01*
X83078333Y-75100476D01*
X83102142Y-75148095D01*
X83102142Y-75243333D01*
X83078333Y-75290952D01*
X83102142Y-75505238D02*
X82602142Y-75505238D01*
X83078333Y-75505238D02*
X83102142Y-75552857D01*
X83102142Y-75648095D01*
X83078333Y-75695714D01*
X83054523Y-75719523D01*
X83006904Y-75743333D01*
X82864047Y-75743333D01*
X82816428Y-75719523D01*
X82792619Y-75695714D01*
X82768809Y-75648095D01*
X82768809Y-75552857D01*
X82792619Y-75505238D01*
X83221190Y-75933809D02*
X83245000Y-75957619D01*
X83268809Y-76005238D01*
X83268809Y-76124285D01*
X83245000Y-76171904D01*
X83221190Y-76195714D01*
X83173571Y-76219523D01*
X83125952Y-76219523D01*
X83054523Y-76195714D01*
X82768809Y-75910000D01*
X82768809Y-76219523D01*
X82768809Y-76695714D02*
X82768809Y-76410000D01*
X82768809Y-76552857D02*
X83268809Y-76552857D01*
X83197380Y-76505238D01*
X83149761Y-76457619D01*
X83125952Y-76410000D01*
X83268809Y-77005238D02*
X83268809Y-77052857D01*
X83245000Y-77100476D01*
X83221190Y-77124285D01*
X83173571Y-77148095D01*
X83078333Y-77171904D01*
X82959285Y-77171904D01*
X82864047Y-77148095D01*
X82816428Y-77124285D01*
X82792619Y-77100476D01*
X82768809Y-77052857D01*
X82768809Y-77005238D01*
X82792619Y-76957619D01*
X82816428Y-76933809D01*
X82864047Y-76910000D01*
X82959285Y-76886190D01*
X83078333Y-76886190D01*
X83173571Y-76910000D01*
X83221190Y-76933809D01*
X83245000Y-76957619D01*
X83268809Y-77005238D01*
X83221190Y-77362380D02*
X83245000Y-77386190D01*
X83268809Y-77433809D01*
X83268809Y-77552857D01*
X83245000Y-77600476D01*
X83221190Y-77624285D01*
X83173571Y-77648095D01*
X83125952Y-77648095D01*
X83054523Y-77624285D01*
X82768809Y-77338571D01*
X82768809Y-77648095D01*
X83102142Y-77862380D02*
X82768809Y-77862380D01*
X83054523Y-77862380D02*
X83078333Y-77886190D01*
X83102142Y-77933809D01*
X83102142Y-78005238D01*
X83078333Y-78052857D01*
X83030714Y-78076666D01*
X82768809Y-78076666D01*
X82721190Y-78195714D02*
X82721190Y-78576666D01*
X83102142Y-78624285D02*
X83102142Y-78814761D01*
X83268809Y-78695714D02*
X82840238Y-78695714D01*
X82792619Y-78719523D01*
X82768809Y-78767142D01*
X82768809Y-78814761D01*
X83102142Y-78910000D02*
X83102142Y-79100476D01*
X83268809Y-78981428D02*
X82840238Y-78981428D01*
X82792619Y-79005238D01*
X82768809Y-79052857D01*
X82768809Y-79100476D01*
X82768809Y-79338571D02*
X82792619Y-79290952D01*
X82840238Y-79267142D01*
X83268809Y-79267142D01*
X82721190Y-79410000D02*
X82721190Y-79790952D01*
X82768809Y-79910000D02*
X83102142Y-79910000D01*
X83006904Y-79910000D02*
X83054523Y-79933809D01*
X83078333Y-79957619D01*
X83102142Y-80005238D01*
X83102142Y-80052857D01*
X82792619Y-80195714D02*
X82768809Y-80243333D01*
X82768809Y-80338571D01*
X82792619Y-80386190D01*
X82840238Y-80410000D01*
X82864047Y-80410000D01*
X82911666Y-80386190D01*
X82935476Y-80338571D01*
X82935476Y-80267142D01*
X82959285Y-80219523D01*
X83006904Y-80195714D01*
X83030714Y-80195714D01*
X83078333Y-80219523D01*
X83102142Y-80267142D01*
X83102142Y-80338571D01*
X83078333Y-80386190D01*
X83102142Y-80838571D02*
X82768809Y-80838571D01*
X83292619Y-80719523D02*
X82935476Y-80600476D01*
X82935476Y-80910000D01*
X83054523Y-81171904D02*
X83078333Y-81124285D01*
X83102142Y-81100476D01*
X83149761Y-81076666D01*
X83173571Y-81076666D01*
X83221190Y-81100476D01*
X83245000Y-81124285D01*
X83268809Y-81171904D01*
X83268809Y-81267142D01*
X83245000Y-81314761D01*
X83221190Y-81338571D01*
X83173571Y-81362380D01*
X83149761Y-81362380D01*
X83102142Y-81338571D01*
X83078333Y-81314761D01*
X83054523Y-81267142D01*
X83054523Y-81171904D01*
X83030714Y-81124285D01*
X83006904Y-81100476D01*
X82959285Y-81076666D01*
X82864047Y-81076666D01*
X82816428Y-81100476D01*
X82792619Y-81124285D01*
X82768809Y-81171904D01*
X82768809Y-81267142D01*
X82792619Y-81314761D01*
X82816428Y-81338571D01*
X82864047Y-81362380D01*
X82959285Y-81362380D01*
X83006904Y-81338571D01*
X83030714Y-81314761D01*
X83054523Y-81267142D01*
X83268809Y-81814761D02*
X83268809Y-81576666D01*
X83030714Y-81552857D01*
X83054523Y-81576666D01*
X83078333Y-81624285D01*
X83078333Y-81743333D01*
X83054523Y-81790952D01*
X83030714Y-81814761D01*
X82983095Y-81838571D01*
X82864047Y-81838571D01*
X82816428Y-81814761D01*
X82792619Y-81790952D01*
X82768809Y-81743333D01*
X82768809Y-81624285D01*
X82792619Y-81576666D01*
X82816428Y-81552857D01*
X82578333Y-82576666D02*
X82602142Y-82552857D01*
X82673571Y-82505238D01*
X82721190Y-82481428D01*
X82792619Y-82457619D01*
X82911666Y-82433809D01*
X83006904Y-82433809D01*
X83125952Y-82457619D01*
X83197380Y-82481428D01*
X83245000Y-82505238D01*
X83316428Y-82552857D01*
X83340238Y-82576666D01*
X82792619Y-82981428D02*
X82768809Y-82933809D01*
X82768809Y-82838571D01*
X82792619Y-82790952D01*
X82816428Y-82767142D01*
X82864047Y-82743333D01*
X83006904Y-82743333D01*
X83054523Y-82767142D01*
X83078333Y-82790952D01*
X83102142Y-82838571D01*
X83102142Y-82933809D01*
X83078333Y-82981428D01*
X82768809Y-83195714D02*
X83268809Y-83195714D01*
X83078333Y-83195714D02*
X83102142Y-83243333D01*
X83102142Y-83338571D01*
X83078333Y-83386190D01*
X83054523Y-83410000D01*
X83006904Y-83433809D01*
X82864047Y-83433809D01*
X82816428Y-83410000D01*
X82792619Y-83386190D01*
X82768809Y-83338571D01*
X82768809Y-83243333D01*
X82792619Y-83195714D01*
X83268809Y-83600476D02*
X83268809Y-83910000D01*
X83078333Y-83743333D01*
X83078333Y-83814761D01*
X83054523Y-83862380D01*
X83030714Y-83886190D01*
X82983095Y-83910000D01*
X82864047Y-83910000D01*
X82816428Y-83886190D01*
X82792619Y-83862380D01*
X82768809Y-83814761D01*
X82768809Y-83671904D01*
X82792619Y-83624285D01*
X82816428Y-83600476D01*
X83054523Y-84195714D02*
X83078333Y-84148095D01*
X83102142Y-84124285D01*
X83149761Y-84100476D01*
X83173571Y-84100476D01*
X83221190Y-84124285D01*
X83245000Y-84148095D01*
X83268809Y-84195714D01*
X83268809Y-84290952D01*
X83245000Y-84338571D01*
X83221190Y-84362380D01*
X83173571Y-84386190D01*
X83149761Y-84386190D01*
X83102142Y-84362380D01*
X83078333Y-84338571D01*
X83054523Y-84290952D01*
X83054523Y-84195714D01*
X83030714Y-84148095D01*
X83006904Y-84124285D01*
X82959285Y-84100476D01*
X82864047Y-84100476D01*
X82816428Y-84124285D01*
X82792619Y-84148095D01*
X82768809Y-84195714D01*
X82768809Y-84290952D01*
X82792619Y-84338571D01*
X82816428Y-84362380D01*
X82864047Y-84386190D01*
X82959285Y-84386190D01*
X83006904Y-84362380D01*
X83030714Y-84338571D01*
X83054523Y-84290952D01*
X82792619Y-84790952D02*
X82768809Y-84743333D01*
X82768809Y-84648095D01*
X82792619Y-84600476D01*
X82840238Y-84576666D01*
X83030714Y-84576666D01*
X83078333Y-84600476D01*
X83102142Y-84648095D01*
X83102142Y-84743333D01*
X83078333Y-84790952D01*
X83030714Y-84814761D01*
X82983095Y-84814761D01*
X82935476Y-84576666D01*
X83102142Y-84957619D02*
X83102142Y-85148095D01*
X82768809Y-85029047D02*
X83197380Y-85029047D01*
X83245000Y-85052857D01*
X83268809Y-85100476D01*
X83268809Y-85148095D01*
X83268809Y-85410000D02*
X83268809Y-85457619D01*
X83245000Y-85505238D01*
X83221190Y-85529047D01*
X83173571Y-85552857D01*
X83078333Y-85576666D01*
X82959285Y-85576666D01*
X82864047Y-85552857D01*
X82816428Y-85529047D01*
X82792619Y-85505238D01*
X82768809Y-85457619D01*
X82768809Y-85410000D01*
X82792619Y-85362380D01*
X82816428Y-85338571D01*
X82864047Y-85314761D01*
X82959285Y-85290952D01*
X83078333Y-85290952D01*
X83173571Y-85314761D01*
X83221190Y-85338571D01*
X83245000Y-85362380D01*
X83268809Y-85410000D01*
X82578333Y-85743333D02*
X82602142Y-85767142D01*
X82673571Y-85814761D01*
X82721190Y-85838571D01*
X82792619Y-85862380D01*
X82911666Y-85886190D01*
X83006904Y-85886190D01*
X83125952Y-85862380D01*
X83197380Y-85838571D01*
X83245000Y-85814761D01*
X83316428Y-85767142D01*
X83340238Y-85743333D01*
X102072380Y-96333690D02*
X101905714Y-96095595D01*
X101786666Y-96333690D02*
X101786666Y-95833690D01*
X101977142Y-95833690D01*
X102024761Y-95857500D01*
X102048571Y-95881309D01*
X102072380Y-95928928D01*
X102072380Y-96000357D01*
X102048571Y-96047976D01*
X102024761Y-96071785D01*
X101977142Y-96095595D01*
X101786666Y-96095595D01*
X102262857Y-96309880D02*
X102334285Y-96333690D01*
X102453333Y-96333690D01*
X102500952Y-96309880D01*
X102524761Y-96286071D01*
X102548571Y-96238452D01*
X102548571Y-96190833D01*
X102524761Y-96143214D01*
X102500952Y-96119404D01*
X102453333Y-96095595D01*
X102358095Y-96071785D01*
X102310476Y-96047976D01*
X102286666Y-96024166D01*
X102262857Y-95976547D01*
X102262857Y-95928928D01*
X102286666Y-95881309D01*
X102310476Y-95857500D01*
X102358095Y-95833690D01*
X102477142Y-95833690D01*
X102548571Y-95857500D01*
X102977142Y-96000357D02*
X102977142Y-96333690D01*
X102858095Y-95809880D02*
X102739047Y-96167023D01*
X103048571Y-96167023D01*
X103310476Y-96047976D02*
X103262857Y-96024166D01*
X103239047Y-96000357D01*
X103215238Y-95952738D01*
X103215238Y-95928928D01*
X103239047Y-95881309D01*
X103262857Y-95857500D01*
X103310476Y-95833690D01*
X103405714Y-95833690D01*
X103453333Y-95857500D01*
X103477142Y-95881309D01*
X103500952Y-95928928D01*
X103500952Y-95952738D01*
X103477142Y-96000357D01*
X103453333Y-96024166D01*
X103405714Y-96047976D01*
X103310476Y-96047976D01*
X103262857Y-96071785D01*
X103239047Y-96095595D01*
X103215238Y-96143214D01*
X103215238Y-96238452D01*
X103239047Y-96286071D01*
X103262857Y-96309880D01*
X103310476Y-96333690D01*
X103405714Y-96333690D01*
X103453333Y-96309880D01*
X103477142Y-96286071D01*
X103500952Y-96238452D01*
X103500952Y-96143214D01*
X103477142Y-96095595D01*
X103453333Y-96071785D01*
X103405714Y-96047976D01*
X103953333Y-95833690D02*
X103715238Y-95833690D01*
X103691428Y-96071785D01*
X103715238Y-96047976D01*
X103762857Y-96024166D01*
X103881904Y-96024166D01*
X103929523Y-96047976D01*
X103953333Y-96071785D01*
X103977142Y-96119404D01*
X103977142Y-96238452D01*
X103953333Y-96286071D01*
X103929523Y-96309880D01*
X103881904Y-96333690D01*
X103762857Y-96333690D01*
X103715238Y-96309880D01*
X103691428Y-96286071D01*
X99715238Y-96682500D02*
X99667619Y-96658690D01*
X99596190Y-96658690D01*
X99524761Y-96682500D01*
X99477142Y-96730119D01*
X99453333Y-96777738D01*
X99429523Y-96872976D01*
X99429523Y-96944404D01*
X99453333Y-97039642D01*
X99477142Y-97087261D01*
X99524761Y-97134880D01*
X99596190Y-97158690D01*
X99643809Y-97158690D01*
X99715238Y-97134880D01*
X99739047Y-97111071D01*
X99739047Y-96944404D01*
X99643809Y-96944404D01*
X99953333Y-97158690D02*
X99953333Y-96658690D01*
X100239047Y-97158690D01*
X100239047Y-96658690D01*
X100477142Y-97158690D02*
X100477142Y-96658690D01*
X100596190Y-96658690D01*
X100667619Y-96682500D01*
X100715238Y-96730119D01*
X100739047Y-96777738D01*
X100762857Y-96872976D01*
X100762857Y-96944404D01*
X100739047Y-97039642D01*
X100715238Y-97087261D01*
X100667619Y-97134880D01*
X100596190Y-97158690D01*
X100477142Y-97158690D01*
X101477142Y-97325357D02*
X101477142Y-96611071D01*
X102191428Y-97015833D02*
X102429523Y-97015833D01*
X102143809Y-97158690D02*
X102310476Y-96658690D01*
X102477142Y-97158690D01*
X103143809Y-97325357D02*
X103143809Y-96611071D01*
X104048571Y-96896785D02*
X104120000Y-96920595D01*
X104143809Y-96944404D01*
X104167619Y-96992023D01*
X104167619Y-97063452D01*
X104143809Y-97111071D01*
X104120000Y-97134880D01*
X104072380Y-97158690D01*
X103881904Y-97158690D01*
X103881904Y-96658690D01*
X104048571Y-96658690D01*
X104096190Y-96682500D01*
X104120000Y-96706309D01*
X104143809Y-96753928D01*
X104143809Y-96801547D01*
X104120000Y-96849166D01*
X104096190Y-96872976D01*
X104048571Y-96896785D01*
X103881904Y-96896785D01*
X104881904Y-97325357D02*
X104881904Y-96611071D01*
X105858095Y-96658690D02*
X105620000Y-96658690D01*
X105596190Y-96896785D01*
X105620000Y-96872976D01*
X105667619Y-96849166D01*
X105786666Y-96849166D01*
X105834285Y-96872976D01*
X105858095Y-96896785D01*
X105881904Y-96944404D01*
X105881904Y-97063452D01*
X105858095Y-97111071D01*
X105834285Y-97134880D01*
X105786666Y-97158690D01*
X105667619Y-97158690D01*
X105620000Y-97134880D01*
X105596190Y-97111071D01*
X106024761Y-96658690D02*
X106191428Y-97158690D01*
X106358095Y-96658690D01*
X87388095Y-95833690D02*
X87697619Y-95833690D01*
X87530952Y-96024166D01*
X87602380Y-96024166D01*
X87650000Y-96047976D01*
X87673809Y-96071785D01*
X87697619Y-96119404D01*
X87697619Y-96238452D01*
X87673809Y-96286071D01*
X87650000Y-96309880D01*
X87602380Y-96333690D01*
X87459523Y-96333690D01*
X87411904Y-96309880D01*
X87388095Y-96286071D01*
X87911904Y-96286071D02*
X87935714Y-96309880D01*
X87911904Y-96333690D01*
X87888095Y-96309880D01*
X87911904Y-96286071D01*
X87911904Y-96333690D01*
X88102380Y-95833690D02*
X88411904Y-95833690D01*
X88245238Y-96024166D01*
X88316666Y-96024166D01*
X88364285Y-96047976D01*
X88388095Y-96071785D01*
X88411904Y-96119404D01*
X88411904Y-96238452D01*
X88388095Y-96286071D01*
X88364285Y-96309880D01*
X88316666Y-96333690D01*
X88173809Y-96333690D01*
X88126190Y-96309880D01*
X88102380Y-96286071D01*
X88554761Y-95833690D02*
X88721428Y-96333690D01*
X88888095Y-95833690D01*
X89364285Y-95833690D02*
X89650000Y-95833690D01*
X89507142Y-96333690D02*
X89507142Y-95833690D01*
X89745238Y-95833690D02*
X90030952Y-95833690D01*
X89888095Y-96333690D02*
X89888095Y-95833690D01*
X90435714Y-96333690D02*
X90197619Y-96333690D01*
X90197619Y-95833690D01*
X84745238Y-96658690D02*
X85054761Y-96658690D01*
X84888095Y-96849166D01*
X84959523Y-96849166D01*
X85007142Y-96872976D01*
X85030952Y-96896785D01*
X85054761Y-96944404D01*
X85054761Y-97063452D01*
X85030952Y-97111071D01*
X85007142Y-97134880D01*
X84959523Y-97158690D01*
X84816666Y-97158690D01*
X84769047Y-97134880D01*
X84745238Y-97111071D01*
X85197619Y-96658690D02*
X85364285Y-97158690D01*
X85530952Y-96658690D01*
X85650000Y-96658690D02*
X85959523Y-96658690D01*
X85792857Y-96849166D01*
X85864285Y-96849166D01*
X85911904Y-96872976D01*
X85935714Y-96896785D01*
X85959523Y-96944404D01*
X85959523Y-97063452D01*
X85935714Y-97111071D01*
X85911904Y-97134880D01*
X85864285Y-97158690D01*
X85721428Y-97158690D01*
X85673809Y-97134880D01*
X85650000Y-97111071D01*
X86673809Y-97325357D02*
X86673809Y-96611071D01*
X87697619Y-97158690D02*
X87530952Y-96920595D01*
X87411904Y-97158690D02*
X87411904Y-96658690D01*
X87602380Y-96658690D01*
X87650000Y-96682500D01*
X87673809Y-96706309D01*
X87697619Y-96753928D01*
X87697619Y-96825357D01*
X87673809Y-96872976D01*
X87650000Y-96896785D01*
X87602380Y-96920595D01*
X87411904Y-96920595D01*
X87864285Y-96658690D02*
X88197619Y-97158690D01*
X88197619Y-96658690D02*
X87864285Y-97158690D01*
X88888095Y-97325357D02*
X88888095Y-96611071D01*
X89554761Y-96658690D02*
X89840476Y-96658690D01*
X89697619Y-97158690D02*
X89697619Y-96658690D01*
X89959523Y-96658690D02*
X90292857Y-97158690D01*
X90292857Y-96658690D02*
X89959523Y-97158690D01*
X90983333Y-97325357D02*
X90983333Y-96611071D01*
X91983333Y-96682500D02*
X91935714Y-96658690D01*
X91864285Y-96658690D01*
X91792857Y-96682500D01*
X91745238Y-96730119D01*
X91721428Y-96777738D01*
X91697619Y-96872976D01*
X91697619Y-96944404D01*
X91721428Y-97039642D01*
X91745238Y-97087261D01*
X91792857Y-97134880D01*
X91864285Y-97158690D01*
X91911904Y-97158690D01*
X91983333Y-97134880D01*
X92007142Y-97111071D01*
X92007142Y-96944404D01*
X91911904Y-96944404D01*
X92221428Y-97158690D02*
X92221428Y-96658690D01*
X92507142Y-97158690D01*
X92507142Y-96658690D01*
X92745238Y-97158690D02*
X92745238Y-96658690D01*
X92864285Y-96658690D01*
X92935714Y-96682500D01*
X92983333Y-96730119D01*
X93007142Y-96777738D01*
X93030952Y-96872976D01*
X93030952Y-96944404D01*
X93007142Y-97039642D01*
X92983333Y-97087261D01*
X92935714Y-97134880D01*
X92864285Y-97158690D01*
X92745238Y-97158690D01*
D11*
X96373000Y-81788000D02*
X96373000Y-83738000D01*
X96373000Y-81788000D02*
X96373000Y-79838000D01*
X101493000Y-81788000D02*
X101493000Y-83738000D01*
X101493000Y-81788000D02*
X101493000Y-78338000D01*
X92145000Y-55860000D02*
X92145000Y-56585000D01*
X92145000Y-56585000D02*
X91420000Y-56585000D01*
X86925000Y-52090000D02*
X86925000Y-51365000D01*
X86925000Y-51365000D02*
X87650000Y-51365000D01*
X86925000Y-55860000D02*
X86925000Y-56585000D01*
X86925000Y-56585000D02*
X87650000Y-56585000D01*
X92145000Y-52090000D02*
X92145000Y-51365000D01*
X97655000Y-46485000D02*
X96655000Y-46485000D01*
X97655000Y-43685000D02*
X96355000Y-43685000D01*
X105002064Y-88365000D02*
X104547936Y-88365000D01*
X105002064Y-86895000D02*
X104547936Y-86895000D01*
X107288000Y-75695436D02*
X107288000Y-76149564D01*
X105818000Y-75695436D02*
X105818000Y-76149564D01*
X102516000Y-76173064D02*
X102516000Y-75718936D01*
X103986000Y-76173064D02*
X103986000Y-75718936D01*
X87657000Y-65505064D02*
X87657000Y-65050936D01*
X89127000Y-65505064D02*
X89127000Y-65050936D01*
X91086000Y-65528564D02*
X91086000Y-65074436D01*
X92556000Y-65528564D02*
X92556000Y-65074436D01*
X82831000Y-54432564D02*
X82831000Y-53978436D01*
X84301000Y-54432564D02*
X84301000Y-53978436D01*
X86260000Y-45947064D02*
X86260000Y-45492936D01*
X87730000Y-45947064D02*
X87730000Y-45492936D01*
X90905000Y-45492936D02*
X90905000Y-45947064D01*
X89435000Y-45492936D02*
X89435000Y-45947064D01*
X103699000Y-84769000D02*
X106359000Y-84769000D01*
X103699000Y-82169000D02*
X103699000Y-84769000D01*
X106359000Y-82169000D02*
X106359000Y-84769000D01*
X103699000Y-82169000D02*
X106359000Y-82169000D01*
X103699000Y-80899000D02*
X103699000Y-79569000D01*
X103699000Y-79569000D02*
X105029000Y-79569000D01*
X89094000Y-70171000D02*
X89094000Y-72831000D01*
X94234000Y-70171000D02*
X89094000Y-70171000D01*
X94234000Y-72831000D02*
X89094000Y-72831000D01*
X94234000Y-70171000D02*
X94234000Y-72831000D01*
X95504000Y-70171000D02*
X96834000Y-70171000D01*
X96834000Y-70171000D02*
X96834000Y-71501000D01*
X99254000Y-70171000D02*
X99254000Y-72831000D01*
X104394000Y-70171000D02*
X99254000Y-70171000D01*
X104394000Y-72831000D02*
X99254000Y-72831000D01*
X104394000Y-70171000D02*
X104394000Y-72831000D01*
X105664000Y-70171000D02*
X106994000Y-70171000D01*
X106994000Y-70171000D02*
X106994000Y-71501000D01*
X93786000Y-93405000D02*
X93786000Y-90745000D01*
X86106000Y-93405000D02*
X93786000Y-93405000D01*
X86106000Y-90745000D02*
X93786000Y-90745000D01*
X86106000Y-93405000D02*
X86106000Y-90745000D01*
X84836000Y-93405000D02*
X83506000Y-93405000D01*
X83506000Y-93405000D02*
X83506000Y-92075000D01*
X97476000Y-90745000D02*
X97476000Y-93405000D01*
X105156000Y-90745000D02*
X97476000Y-90745000D01*
X105156000Y-93405000D02*
X97476000Y-93405000D01*
X105156000Y-90745000D02*
X105156000Y-93405000D01*
X106426000Y-90745000D02*
X107756000Y-90745000D01*
X107756000Y-90745000D02*
X107756000Y-92075000D01*
X102175000Y-67751000D02*
X107375000Y-67751000D01*
X102175000Y-49911000D02*
X102175000Y-67751000D01*
X107375000Y-47311000D02*
X107375000Y-67751000D01*
X102175000Y-49911000D02*
X104775000Y-49911000D01*
X104775000Y-49911000D02*
X104775000Y-47311000D01*
X104775000Y-47311000D02*
X107375000Y-47311000D01*
X102175000Y-48641000D02*
X102175000Y-47311000D01*
X102175000Y-47311000D02*
X103505000Y-47311000D01*
X98095000Y-42785000D02*
X86055000Y-42785000D01*
X86055000Y-42785000D02*
X86055000Y-26275000D01*
X98095000Y-42785000D02*
X98095000Y-26275000D01*
X98095000Y-26275000D02*
X86055000Y-26275000D01*
X89352000Y-62341000D02*
X89352000Y-59656000D01*
X89352000Y-59656000D02*
X87432000Y-59656000D01*
X87432000Y-59656000D02*
X87432000Y-62341000D01*
X92781000Y-62341000D02*
X92781000Y-59656000D01*
X92781000Y-59656000D02*
X90861000Y-59656000D01*
X90861000Y-59656000D02*
X90861000Y-62341000D01*
X89689000Y-83888252D02*
X89689000Y-83365748D01*
X91159000Y-83888252D02*
X91159000Y-83365748D01*
X92864000Y-83954252D02*
X92864000Y-83431748D01*
X94334000Y-83954252D02*
X94334000Y-83431748D01*
X97944000Y-49664252D02*
X97944000Y-49141748D01*
X99414000Y-49664252D02*
X99414000Y-49141748D01*
X94642000Y-49664252D02*
X94642000Y-49141748D01*
X96112000Y-49664252D02*
X96112000Y-49141748D01*
X84301000Y-49522748D02*
X84301000Y-50045252D01*
X82831000Y-49522748D02*
X82831000Y-50045252D01*
X82831000Y-45981252D02*
X82831000Y-45458748D01*
X84301000Y-45981252D02*
X84301000Y-45458748D01*
D12*
X104076666Y-28002380D02*
X103743333Y-27526190D01*
X103505238Y-28002380D02*
X103505238Y-27002380D01*
X103886190Y-27002380D01*
X103981428Y-27050000D01*
X104029047Y-27097619D01*
X104076666Y-27192857D01*
X104076666Y-27335714D01*
X104029047Y-27430952D01*
X103981428Y-27478571D01*
X103886190Y-27526190D01*
X103505238Y-27526190D01*
X104505238Y-27478571D02*
X104838571Y-27478571D01*
X104981428Y-28002380D02*
X104505238Y-28002380D01*
X104505238Y-27002380D01*
X104981428Y-27002380D01*
X105743333Y-27478571D02*
X105410000Y-27478571D01*
X105410000Y-28002380D02*
X105410000Y-27002380D01*
X105886190Y-27002380D01*
X106410000Y-27002380D02*
X106410000Y-27240476D01*
X106171904Y-27145238D02*
X106410000Y-27240476D01*
X106648095Y-27145238D01*
X106267142Y-27430952D02*
X106410000Y-27240476D01*
X106552857Y-27430952D01*
X107171904Y-27002380D02*
X107171904Y-27240476D01*
X106933809Y-27145238D02*
X107171904Y-27240476D01*
X107410000Y-27145238D01*
X107029047Y-27430952D02*
X107171904Y-27240476D01*
X107314761Y-27430952D01*
X101785380Y-82549904D02*
X102594904Y-82549904D01*
X102690142Y-82502285D01*
X102737761Y-82454666D01*
X102785380Y-82359428D01*
X102785380Y-82168952D01*
X102737761Y-82073714D01*
X102690142Y-82026095D01*
X102594904Y-81978476D01*
X101785380Y-81978476D01*
X101785380Y-81597523D02*
X101785380Y-80978476D01*
X102166333Y-81311809D01*
X102166333Y-81168952D01*
X102213952Y-81073714D01*
X102261571Y-81026095D01*
X102356809Y-80978476D01*
X102594904Y-80978476D01*
X102690142Y-81026095D01*
X102737761Y-81073714D01*
X102785380Y-81168952D01*
X102785380Y-81454666D01*
X102737761Y-81549904D01*
X102690142Y-81597523D01*
X92787380Y-54736904D02*
X93596904Y-54736904D01*
X93692142Y-54689285D01*
X93739761Y-54641666D01*
X93787380Y-54546428D01*
X93787380Y-54355952D01*
X93739761Y-54260714D01*
X93692142Y-54213095D01*
X93596904Y-54165476D01*
X92787380Y-54165476D01*
X92882619Y-53736904D02*
X92835000Y-53689285D01*
X92787380Y-53594047D01*
X92787380Y-53355952D01*
X92835000Y-53260714D01*
X92882619Y-53213095D01*
X92977857Y-53165476D01*
X93073095Y-53165476D01*
X93215952Y-53213095D01*
X93787380Y-53784523D01*
X93787380Y-53165476D01*
X96411385Y-42037380D02*
X96411385Y-42846904D01*
X96459004Y-42942142D01*
X96506623Y-42989761D01*
X96601861Y-43037380D01*
X96792337Y-43037380D01*
X96887575Y-42989761D01*
X96935194Y-42942142D01*
X96982813Y-42846904D01*
X96982813Y-42037380D01*
X97982813Y-43037380D02*
X97411385Y-43037380D01*
X97697099Y-43037380D02*
X97697099Y-42037380D01*
X97601861Y-42180238D01*
X97506623Y-42275476D01*
X97411385Y-42323095D01*
X104608333Y-89732380D02*
X104275000Y-89256190D01*
X104036904Y-89732380D02*
X104036904Y-88732380D01*
X104417857Y-88732380D01*
X104513095Y-88780000D01*
X104560714Y-88827619D01*
X104608333Y-88922857D01*
X104608333Y-89065714D01*
X104560714Y-89160952D01*
X104513095Y-89208571D01*
X104417857Y-89256190D01*
X104036904Y-89256190D01*
X105179761Y-89160952D02*
X105084523Y-89113333D01*
X105036904Y-89065714D01*
X104989285Y-88970476D01*
X104989285Y-88922857D01*
X105036904Y-88827619D01*
X105084523Y-88780000D01*
X105179761Y-88732380D01*
X105370238Y-88732380D01*
X105465476Y-88780000D01*
X105513095Y-88827619D01*
X105560714Y-88922857D01*
X105560714Y-88970476D01*
X105513095Y-89065714D01*
X105465476Y-89113333D01*
X105370238Y-89160952D01*
X105179761Y-89160952D01*
X105084523Y-89208571D01*
X105036904Y-89256190D01*
X104989285Y-89351428D01*
X104989285Y-89541904D01*
X105036904Y-89637142D01*
X105084523Y-89684761D01*
X105179761Y-89732380D01*
X105370238Y-89732380D01*
X105465476Y-89684761D01*
X105513095Y-89637142D01*
X105560714Y-89541904D01*
X105560714Y-89351428D01*
X105513095Y-89256190D01*
X105465476Y-89208571D01*
X105370238Y-89160952D01*
X108655380Y-76089166D02*
X108179190Y-76422500D01*
X108655380Y-76660595D02*
X107655380Y-76660595D01*
X107655380Y-76279642D01*
X107703000Y-76184404D01*
X107750619Y-76136785D01*
X107845857Y-76089166D01*
X107988714Y-76089166D01*
X108083952Y-76136785D01*
X108131571Y-76184404D01*
X108179190Y-76279642D01*
X108179190Y-76660595D01*
X107655380Y-75755833D02*
X107655380Y-75089166D01*
X108655380Y-75517738D01*
X102053380Y-76112666D02*
X101577190Y-76446000D01*
X102053380Y-76684095D02*
X101053380Y-76684095D01*
X101053380Y-76303142D01*
X101101000Y-76207904D01*
X101148619Y-76160285D01*
X101243857Y-76112666D01*
X101386714Y-76112666D01*
X101481952Y-76160285D01*
X101529571Y-76207904D01*
X101577190Y-76303142D01*
X101577190Y-76684095D01*
X101053380Y-75255523D02*
X101053380Y-75446000D01*
X101101000Y-75541238D01*
X101148619Y-75588857D01*
X101291476Y-75684095D01*
X101481952Y-75731714D01*
X101862904Y-75731714D01*
X101958142Y-75684095D01*
X102005761Y-75636476D01*
X102053380Y-75541238D01*
X102053380Y-75350761D01*
X102005761Y-75255523D01*
X101958142Y-75207904D01*
X101862904Y-75160285D01*
X101624809Y-75160285D01*
X101529571Y-75207904D01*
X101481952Y-75255523D01*
X101434333Y-75350761D01*
X101434333Y-75541238D01*
X101481952Y-75636476D01*
X101529571Y-75684095D01*
X101624809Y-75731714D01*
X87194380Y-65444666D02*
X86718190Y-65778000D01*
X87194380Y-66016095D02*
X86194380Y-66016095D01*
X86194380Y-65635142D01*
X86242000Y-65539904D01*
X86289619Y-65492285D01*
X86384857Y-65444666D01*
X86527714Y-65444666D01*
X86622952Y-65492285D01*
X86670571Y-65539904D01*
X86718190Y-65635142D01*
X86718190Y-66016095D01*
X86194380Y-64539904D02*
X86194380Y-65016095D01*
X86670571Y-65063714D01*
X86622952Y-65016095D01*
X86575333Y-64920857D01*
X86575333Y-64682761D01*
X86622952Y-64587523D01*
X86670571Y-64539904D01*
X86765809Y-64492285D01*
X87003904Y-64492285D01*
X87099142Y-64539904D01*
X87146761Y-64587523D01*
X87194380Y-64682761D01*
X87194380Y-64920857D01*
X87146761Y-65016095D01*
X87099142Y-65063714D01*
X90623380Y-65468166D02*
X90147190Y-65801500D01*
X90623380Y-66039595D02*
X89623380Y-66039595D01*
X89623380Y-65658642D01*
X89671000Y-65563404D01*
X89718619Y-65515785D01*
X89813857Y-65468166D01*
X89956714Y-65468166D01*
X90051952Y-65515785D01*
X90099571Y-65563404D01*
X90147190Y-65658642D01*
X90147190Y-66039595D01*
X89956714Y-64611023D02*
X90623380Y-64611023D01*
X89575761Y-64849119D02*
X90290047Y-65087214D01*
X90290047Y-64468166D01*
X85542380Y-54372166D02*
X85066190Y-54705500D01*
X85542380Y-54943595D02*
X84542380Y-54943595D01*
X84542380Y-54562642D01*
X84590000Y-54467404D01*
X84637619Y-54419785D01*
X84732857Y-54372166D01*
X84875714Y-54372166D01*
X84970952Y-54419785D01*
X85018571Y-54467404D01*
X85066190Y-54562642D01*
X85066190Y-54943595D01*
X84542380Y-54038833D02*
X84542380Y-53419785D01*
X84923333Y-53753119D01*
X84923333Y-53610261D01*
X84970952Y-53515023D01*
X85018571Y-53467404D01*
X85113809Y-53419785D01*
X85351904Y-53419785D01*
X85447142Y-53467404D01*
X85494761Y-53515023D01*
X85542380Y-53610261D01*
X85542380Y-53895976D01*
X85494761Y-53991214D01*
X85447142Y-54038833D01*
X85797380Y-45886666D02*
X85321190Y-46220000D01*
X85797380Y-46458095D02*
X84797380Y-46458095D01*
X84797380Y-46077142D01*
X84845000Y-45981904D01*
X84892619Y-45934285D01*
X84987857Y-45886666D01*
X85130714Y-45886666D01*
X85225952Y-45934285D01*
X85273571Y-45981904D01*
X85321190Y-46077142D01*
X85321190Y-46458095D01*
X84892619Y-45505714D02*
X84845000Y-45458095D01*
X84797380Y-45362857D01*
X84797380Y-45124761D01*
X84845000Y-45029523D01*
X84892619Y-44981904D01*
X84987857Y-44934285D01*
X85083095Y-44934285D01*
X85225952Y-44981904D01*
X85797380Y-45553333D01*
X85797380Y-44934285D01*
X89352380Y-45886666D02*
X88876190Y-46220000D01*
X89352380Y-46458095D02*
X88352380Y-46458095D01*
X88352380Y-46077142D01*
X88400000Y-45981904D01*
X88447619Y-45934285D01*
X88542857Y-45886666D01*
X88685714Y-45886666D01*
X88780952Y-45934285D01*
X88828571Y-45981904D01*
X88876190Y-46077142D01*
X88876190Y-46458095D01*
X89352380Y-44934285D02*
X89352380Y-45505714D01*
X89352380Y-45220000D02*
X88352380Y-45220000D01*
X88495238Y-45315238D01*
X88590476Y-45410476D01*
X88638095Y-45505714D01*
X104195666Y-78021380D02*
X104195666Y-78735666D01*
X104148047Y-78878523D01*
X104052809Y-78973761D01*
X103909952Y-79021380D01*
X103814714Y-79021380D01*
X104671857Y-79021380D02*
X104671857Y-78021380D01*
X105052809Y-78021380D01*
X105148047Y-78069000D01*
X105195666Y-78116619D01*
X105243285Y-78211857D01*
X105243285Y-78354714D01*
X105195666Y-78449952D01*
X105148047Y-78497571D01*
X105052809Y-78545190D01*
X104671857Y-78545190D01*
X105576619Y-78021380D02*
X106195666Y-78021380D01*
X105862333Y-78402333D01*
X106005190Y-78402333D01*
X106100428Y-78449952D01*
X106148047Y-78497571D01*
X106195666Y-78592809D01*
X106195666Y-78830904D01*
X106148047Y-78926142D01*
X106100428Y-78973761D01*
X106005190Y-79021380D01*
X105719476Y-79021380D01*
X105624238Y-78973761D01*
X105576619Y-78926142D01*
X97286380Y-72334333D02*
X98000666Y-72334333D01*
X98143523Y-72381952D01*
X98238761Y-72477190D01*
X98286380Y-72620047D01*
X98286380Y-72715285D01*
X98286380Y-71858142D02*
X97286380Y-71858142D01*
X97286380Y-71477190D01*
X97334000Y-71381952D01*
X97381619Y-71334333D01*
X97476857Y-71286714D01*
X97619714Y-71286714D01*
X97714952Y-71334333D01*
X97762571Y-71381952D01*
X97810190Y-71477190D01*
X97810190Y-71858142D01*
X97381619Y-70905761D02*
X97334000Y-70858142D01*
X97286380Y-70762904D01*
X97286380Y-70524809D01*
X97334000Y-70429571D01*
X97381619Y-70381952D01*
X97476857Y-70334333D01*
X97572095Y-70334333D01*
X97714952Y-70381952D01*
X98286380Y-70953380D01*
X98286380Y-70334333D01*
X107446380Y-72334333D02*
X108160666Y-72334333D01*
X108303523Y-72381952D01*
X108398761Y-72477190D01*
X108446380Y-72620047D01*
X108446380Y-72715285D01*
X108446380Y-71858142D02*
X107446380Y-71858142D01*
X107446380Y-71477190D01*
X107494000Y-71381952D01*
X107541619Y-71334333D01*
X107636857Y-71286714D01*
X107779714Y-71286714D01*
X107874952Y-71334333D01*
X107922571Y-71381952D01*
X107970190Y-71477190D01*
X107970190Y-71858142D01*
X108446380Y-70334333D02*
X108446380Y-70905761D01*
X108446380Y-70620047D02*
X107446380Y-70620047D01*
X107589238Y-70715285D01*
X107684476Y-70810523D01*
X107732095Y-70905761D01*
X81958380Y-92408333D02*
X82672666Y-92408333D01*
X82815523Y-92455952D01*
X82910761Y-92551190D01*
X82958380Y-92694047D01*
X82958380Y-92789285D01*
X82291714Y-91503571D02*
X82958380Y-91503571D01*
X81910761Y-91741666D02*
X82625047Y-91979761D01*
X82625047Y-91360714D01*
X95972380Y-92408333D02*
X96686666Y-92408333D01*
X96829523Y-92455952D01*
X96924761Y-92551190D01*
X96972380Y-92694047D01*
X96972380Y-92789285D01*
X95972380Y-92027380D02*
X95972380Y-91408333D01*
X96353333Y-91741666D01*
X96353333Y-91598809D01*
X96400952Y-91503571D01*
X96448571Y-91455952D01*
X96543809Y-91408333D01*
X96781904Y-91408333D01*
X96877142Y-91455952D01*
X96924761Y-91503571D01*
X96972380Y-91598809D01*
X96972380Y-91884523D01*
X96924761Y-91979761D01*
X96877142Y-92027380D01*
X104441666Y-45763380D02*
X104441666Y-46477666D01*
X104394047Y-46620523D01*
X104298809Y-46715761D01*
X104155952Y-46763380D01*
X104060714Y-46763380D01*
X104870238Y-45858619D02*
X104917857Y-45811000D01*
X105013095Y-45763380D01*
X105251190Y-45763380D01*
X105346428Y-45811000D01*
X105394047Y-45858619D01*
X105441666Y-45953857D01*
X105441666Y-46049095D01*
X105394047Y-46191952D01*
X104822619Y-46763380D01*
X105441666Y-46763380D01*
X91741666Y-40227380D02*
X91741666Y-40941666D01*
X91694047Y-41084523D01*
X91598809Y-41179761D01*
X91455952Y-41227380D01*
X91360714Y-41227380D01*
X92741666Y-41227380D02*
X92170238Y-41227380D01*
X92455952Y-41227380D02*
X92455952Y-40227380D01*
X92360714Y-40370238D01*
X92265476Y-40465476D01*
X92170238Y-40513095D01*
X90494380Y-62079095D02*
X89494380Y-62079095D01*
X89494380Y-61841000D01*
X89542000Y-61698142D01*
X89637238Y-61602904D01*
X89732476Y-61555285D01*
X89922952Y-61507666D01*
X90065809Y-61507666D01*
X90256285Y-61555285D01*
X90351523Y-61602904D01*
X90446761Y-61698142D01*
X90494380Y-61841000D01*
X90494380Y-62079095D01*
X89589619Y-61126714D02*
X89542000Y-61079095D01*
X89494380Y-60983857D01*
X89494380Y-60745761D01*
X89542000Y-60650523D01*
X89589619Y-60602904D01*
X89684857Y-60555285D01*
X89780095Y-60555285D01*
X89922952Y-60602904D01*
X90494380Y-61174333D01*
X90494380Y-60555285D01*
X93923380Y-62079095D02*
X92923380Y-62079095D01*
X92923380Y-61841000D01*
X92971000Y-61698142D01*
X93066238Y-61602904D01*
X93161476Y-61555285D01*
X93351952Y-61507666D01*
X93494809Y-61507666D01*
X93685285Y-61555285D01*
X93780523Y-61602904D01*
X93875761Y-61698142D01*
X93923380Y-61841000D01*
X93923380Y-62079095D01*
X93923380Y-60555285D02*
X93923380Y-61126714D01*
X93923380Y-60841000D02*
X92923380Y-60841000D01*
X93066238Y-60936238D01*
X93161476Y-61031476D01*
X93209095Y-61126714D01*
X89101142Y-83793666D02*
X89148761Y-83841285D01*
X89196380Y-83984142D01*
X89196380Y-84079380D01*
X89148761Y-84222238D01*
X89053523Y-84317476D01*
X88958285Y-84365095D01*
X88767809Y-84412714D01*
X88624952Y-84412714D01*
X88434476Y-84365095D01*
X88339238Y-84317476D01*
X88244000Y-84222238D01*
X88196380Y-84079380D01*
X88196380Y-83984142D01*
X88244000Y-83841285D01*
X88291619Y-83793666D01*
X88196380Y-82936523D02*
X88196380Y-83127000D01*
X88244000Y-83222238D01*
X88291619Y-83269857D01*
X88434476Y-83365095D01*
X88624952Y-83412714D01*
X89005904Y-83412714D01*
X89101142Y-83365095D01*
X89148761Y-83317476D01*
X89196380Y-83222238D01*
X89196380Y-83031761D01*
X89148761Y-82936523D01*
X89101142Y-82888904D01*
X89005904Y-82841285D01*
X88767809Y-82841285D01*
X88672571Y-82888904D01*
X88624952Y-82936523D01*
X88577333Y-83031761D01*
X88577333Y-83222238D01*
X88624952Y-83317476D01*
X88672571Y-83365095D01*
X88767809Y-83412714D01*
X92276142Y-83859666D02*
X92323761Y-83907285D01*
X92371380Y-84050142D01*
X92371380Y-84145380D01*
X92323761Y-84288238D01*
X92228523Y-84383476D01*
X92133285Y-84431095D01*
X91942809Y-84478714D01*
X91799952Y-84478714D01*
X91609476Y-84431095D01*
X91514238Y-84383476D01*
X91419000Y-84288238D01*
X91371380Y-84145380D01*
X91371380Y-84050142D01*
X91419000Y-83907285D01*
X91466619Y-83859666D01*
X91371380Y-82954904D02*
X91371380Y-83431095D01*
X91847571Y-83478714D01*
X91799952Y-83431095D01*
X91752333Y-83335857D01*
X91752333Y-83097761D01*
X91799952Y-83002523D01*
X91847571Y-82954904D01*
X91942809Y-82907285D01*
X92180904Y-82907285D01*
X92276142Y-82954904D01*
X92323761Y-83002523D01*
X92371380Y-83097761D01*
X92371380Y-83335857D01*
X92323761Y-83431095D01*
X92276142Y-83478714D01*
X97356142Y-49569666D02*
X97403761Y-49617285D01*
X97451380Y-49760142D01*
X97451380Y-49855380D01*
X97403761Y-49998238D01*
X97308523Y-50093476D01*
X97213285Y-50141095D01*
X97022809Y-50188714D01*
X96879952Y-50188714D01*
X96689476Y-50141095D01*
X96594238Y-50093476D01*
X96499000Y-49998238D01*
X96451380Y-49855380D01*
X96451380Y-49760142D01*
X96499000Y-49617285D01*
X96546619Y-49569666D01*
X96784714Y-48712523D02*
X97451380Y-48712523D01*
X96403761Y-48950619D02*
X97118047Y-49188714D01*
X97118047Y-48569666D01*
X94054142Y-49569666D02*
X94101761Y-49617285D01*
X94149380Y-49760142D01*
X94149380Y-49855380D01*
X94101761Y-49998238D01*
X94006523Y-50093476D01*
X93911285Y-50141095D01*
X93720809Y-50188714D01*
X93577952Y-50188714D01*
X93387476Y-50141095D01*
X93292238Y-50093476D01*
X93197000Y-49998238D01*
X93149380Y-49855380D01*
X93149380Y-49760142D01*
X93197000Y-49617285D01*
X93244619Y-49569666D01*
X93149380Y-49236333D02*
X93149380Y-48617285D01*
X93530333Y-48950619D01*
X93530333Y-48807761D01*
X93577952Y-48712523D01*
X93625571Y-48664904D01*
X93720809Y-48617285D01*
X93958904Y-48617285D01*
X94054142Y-48664904D01*
X94101761Y-48712523D01*
X94149380Y-48807761D01*
X94149380Y-49093476D01*
X94101761Y-49188714D01*
X94054142Y-49236333D01*
X85603142Y-49950666D02*
X85650761Y-49998285D01*
X85698380Y-50141142D01*
X85698380Y-50236380D01*
X85650761Y-50379238D01*
X85555523Y-50474476D01*
X85460285Y-50522095D01*
X85269809Y-50569714D01*
X85126952Y-50569714D01*
X84936476Y-50522095D01*
X84841238Y-50474476D01*
X84746000Y-50379238D01*
X84698380Y-50236380D01*
X84698380Y-50141142D01*
X84746000Y-49998285D01*
X84793619Y-49950666D01*
X84793619Y-49569714D02*
X84746000Y-49522095D01*
X84698380Y-49426857D01*
X84698380Y-49188761D01*
X84746000Y-49093523D01*
X84793619Y-49045904D01*
X84888857Y-48998285D01*
X84984095Y-48998285D01*
X85126952Y-49045904D01*
X85698380Y-49617333D01*
X85698380Y-48998285D01*
X82243142Y-45886666D02*
X82290761Y-45934285D01*
X82338380Y-46077142D01*
X82338380Y-46172380D01*
X82290761Y-46315238D01*
X82195523Y-46410476D01*
X82100285Y-46458095D01*
X81909809Y-46505714D01*
X81766952Y-46505714D01*
X81576476Y-46458095D01*
X81481238Y-46410476D01*
X81386000Y-46315238D01*
X81338380Y-46172380D01*
X81338380Y-46077142D01*
X81386000Y-45934285D01*
X81433619Y-45886666D01*
X82338380Y-44934285D02*
X82338380Y-45505714D01*
X82338380Y-45220000D02*
X81338380Y-45220000D01*
X81481238Y-45315238D01*
X81576476Y-45410476D01*
X81624095Y-45505714D01*
M02*
