M48
INCH,TZ
T1C0.0157
T2C0.0300
T3C0.0394
T4C0.0906
%
G90
G05
T1
X33450Y-19200
X33450Y-23700
X33450Y-34000
X33696Y-21750
X33942Y-23750
X33950Y-21450
X33950Y-30200
X34049Y-20049
X34150Y-22300
X34250Y-26100
X34296Y-23050
X34450Y-29300
X34550Y-19200
X34650Y-23050
X34800Y-22650
X34950Y-19650
X35250Y-21250
X35600Y-34000
X35800Y-17150
X36150Y-19750
X36350Y-22600
X36371Y-20027
X36500Y-22250
X36600Y-20300
X36720Y-18236
X36851Y-20551
X36900Y-34000
X36950Y-22000
X37000Y-19450
X37350Y-21900
X37400Y-21500
X37600Y-18350
X37650Y-17300
X37650Y-17700
X37700Y-33200
X37750Y-26650
X38350Y-26650
X38650Y-30200
X39400Y-29300
X39500Y-34000
X40350Y-35100
X41800Y-30850
T2
X35758Y-15463
X35758Y-16250
X36742Y-15463
X36742Y-16250
T3
X33400Y-36250
X34400Y-36250
X35400Y-36250
X35600Y-28150
X36400Y-36250
X36600Y-28150
X37600Y-28150
X38900Y-36250
X39600Y-28150
X39900Y-36250
X40600Y-28150
X40750Y-19150
X40750Y-20150
X40750Y-21150
X40750Y-22150
X40750Y-23150
X40750Y-24150
X40750Y-25150
X40750Y-26150
X40900Y-36250
X41350Y-31850
X41350Y-32850
X41600Y-28150
X41750Y-19150
X41750Y-20150
X41750Y-21150
X41750Y-22150
X41750Y-23150
X41750Y-24150
X41750Y-25150
X41750Y-26150
X41900Y-36250
T4
X33880Y-14396
X38620Y-14396
T0
M30
