G04 #@! TF.GenerationSoftware,KiCad,Pcbnew,(5.1.9)-1*
G04 #@! TF.CreationDate,2023-04-23T22:26:49+02:00*
G04 #@! TF.ProjectId,cp2102rs485,63703231-3032-4727-9334-38352e6b6963,rev?*
G04 #@! TF.SameCoordinates,Original*
G04 #@! TF.FileFunction,Soldermask,Top*
G04 #@! TF.FilePolarity,Negative*
%FSLAX46Y46*%
G04 Gerber Fmt 4.6, Leading zero omitted, Abs format (unit mm)*
G04 Created by KiCad (PCBNEW (5.1.9)-1) date 2023-04-23 22:26:49*
%MOMM*%
%LPD*%
G01*
G04 APERTURE LIST*
%ADD10C,3.200000*%
%ADD11R,3.350000X3.350000*%
%ADD12R,0.550000X0.400000*%
%ADD13R,0.550000X0.300000*%
%ADD14O,1.700000X1.700000*%
%ADD15R,1.700000X1.700000*%
%ADD16C,3.000000*%
%ADD17C,1.524000*%
G04 APERTURE END LIST*
D10*
X105410000Y-31750000D03*
G36*
G01*
X100688000Y-83488000D02*
X100988000Y-83488000D01*
G75*
G02*
X101138000Y-83638000I0J-150000D01*
G01*
X101138000Y-85088000D01*
G75*
G02*
X100988000Y-85238000I-150000J0D01*
G01*
X100688000Y-85238000D01*
G75*
G02*
X100538000Y-85088000I0J150000D01*
G01*
X100538000Y-83638000D01*
G75*
G02*
X100688000Y-83488000I150000J0D01*
G01*
G37*
G36*
G01*
X99418000Y-83488000D02*
X99718000Y-83488000D01*
G75*
G02*
X99868000Y-83638000I0J-150000D01*
G01*
X99868000Y-85088000D01*
G75*
G02*
X99718000Y-85238000I-150000J0D01*
G01*
X99418000Y-85238000D01*
G75*
G02*
X99268000Y-85088000I0J150000D01*
G01*
X99268000Y-83638000D01*
G75*
G02*
X99418000Y-83488000I150000J0D01*
G01*
G37*
G36*
G01*
X98148000Y-83488000D02*
X98448000Y-83488000D01*
G75*
G02*
X98598000Y-83638000I0J-150000D01*
G01*
X98598000Y-85088000D01*
G75*
G02*
X98448000Y-85238000I-150000J0D01*
G01*
X98148000Y-85238000D01*
G75*
G02*
X97998000Y-85088000I0J150000D01*
G01*
X97998000Y-83638000D01*
G75*
G02*
X98148000Y-83488000I150000J0D01*
G01*
G37*
G36*
G01*
X96878000Y-83488000D02*
X97178000Y-83488000D01*
G75*
G02*
X97328000Y-83638000I0J-150000D01*
G01*
X97328000Y-85088000D01*
G75*
G02*
X97178000Y-85238000I-150000J0D01*
G01*
X96878000Y-85238000D01*
G75*
G02*
X96728000Y-85088000I0J150000D01*
G01*
X96728000Y-83638000D01*
G75*
G02*
X96878000Y-83488000I150000J0D01*
G01*
G37*
G36*
G01*
X96878000Y-78338000D02*
X97178000Y-78338000D01*
G75*
G02*
X97328000Y-78488000I0J-150000D01*
G01*
X97328000Y-79938000D01*
G75*
G02*
X97178000Y-80088000I-150000J0D01*
G01*
X96878000Y-80088000D01*
G75*
G02*
X96728000Y-79938000I0J150000D01*
G01*
X96728000Y-78488000D01*
G75*
G02*
X96878000Y-78338000I150000J0D01*
G01*
G37*
G36*
G01*
X98148000Y-78338000D02*
X98448000Y-78338000D01*
G75*
G02*
X98598000Y-78488000I0J-150000D01*
G01*
X98598000Y-79938000D01*
G75*
G02*
X98448000Y-80088000I-150000J0D01*
G01*
X98148000Y-80088000D01*
G75*
G02*
X97998000Y-79938000I0J150000D01*
G01*
X97998000Y-78488000D01*
G75*
G02*
X98148000Y-78338000I150000J0D01*
G01*
G37*
G36*
G01*
X99418000Y-78338000D02*
X99718000Y-78338000D01*
G75*
G02*
X99868000Y-78488000I0J-150000D01*
G01*
X99868000Y-79938000D01*
G75*
G02*
X99718000Y-80088000I-150000J0D01*
G01*
X99418000Y-80088000D01*
G75*
G02*
X99268000Y-79938000I0J150000D01*
G01*
X99268000Y-78488000D01*
G75*
G02*
X99418000Y-78338000I150000J0D01*
G01*
G37*
G36*
G01*
X100688000Y-78338000D02*
X100988000Y-78338000D01*
G75*
G02*
X101138000Y-78488000I0J-150000D01*
G01*
X101138000Y-79938000D01*
G75*
G02*
X100988000Y-80088000I-150000J0D01*
G01*
X100688000Y-80088000D01*
G75*
G02*
X100538000Y-79938000I0J150000D01*
G01*
X100538000Y-78488000D01*
G75*
G02*
X100688000Y-78338000I150000J0D01*
G01*
G37*
D11*
X89535000Y-53975000D03*
G36*
G01*
X91647500Y-52350000D02*
X92322500Y-52350000D01*
G75*
G02*
X92385000Y-52412500I0J-62500D01*
G01*
X92385000Y-52537500D01*
G75*
G02*
X92322500Y-52600000I-62500J0D01*
G01*
X91647500Y-52600000D01*
G75*
G02*
X91585000Y-52537500I0J62500D01*
G01*
X91585000Y-52412500D01*
G75*
G02*
X91647500Y-52350000I62500J0D01*
G01*
G37*
G36*
G01*
X91647500Y-52850000D02*
X92322500Y-52850000D01*
G75*
G02*
X92385000Y-52912500I0J-62500D01*
G01*
X92385000Y-53037500D01*
G75*
G02*
X92322500Y-53100000I-62500J0D01*
G01*
X91647500Y-53100000D01*
G75*
G02*
X91585000Y-53037500I0J62500D01*
G01*
X91585000Y-52912500D01*
G75*
G02*
X91647500Y-52850000I62500J0D01*
G01*
G37*
G36*
G01*
X91647500Y-53350000D02*
X92322500Y-53350000D01*
G75*
G02*
X92385000Y-53412500I0J-62500D01*
G01*
X92385000Y-53537500D01*
G75*
G02*
X92322500Y-53600000I-62500J0D01*
G01*
X91647500Y-53600000D01*
G75*
G02*
X91585000Y-53537500I0J62500D01*
G01*
X91585000Y-53412500D01*
G75*
G02*
X91647500Y-53350000I62500J0D01*
G01*
G37*
G36*
G01*
X91647500Y-53850000D02*
X92322500Y-53850000D01*
G75*
G02*
X92385000Y-53912500I0J-62500D01*
G01*
X92385000Y-54037500D01*
G75*
G02*
X92322500Y-54100000I-62500J0D01*
G01*
X91647500Y-54100000D01*
G75*
G02*
X91585000Y-54037500I0J62500D01*
G01*
X91585000Y-53912500D01*
G75*
G02*
X91647500Y-53850000I62500J0D01*
G01*
G37*
G36*
G01*
X91647500Y-54350000D02*
X92322500Y-54350000D01*
G75*
G02*
X92385000Y-54412500I0J-62500D01*
G01*
X92385000Y-54537500D01*
G75*
G02*
X92322500Y-54600000I-62500J0D01*
G01*
X91647500Y-54600000D01*
G75*
G02*
X91585000Y-54537500I0J62500D01*
G01*
X91585000Y-54412500D01*
G75*
G02*
X91647500Y-54350000I62500J0D01*
G01*
G37*
G36*
G01*
X91647500Y-54850000D02*
X92322500Y-54850000D01*
G75*
G02*
X92385000Y-54912500I0J-62500D01*
G01*
X92385000Y-55037500D01*
G75*
G02*
X92322500Y-55100000I-62500J0D01*
G01*
X91647500Y-55100000D01*
G75*
G02*
X91585000Y-55037500I0J62500D01*
G01*
X91585000Y-54912500D01*
G75*
G02*
X91647500Y-54850000I62500J0D01*
G01*
G37*
G36*
G01*
X91647500Y-55350000D02*
X92322500Y-55350000D01*
G75*
G02*
X92385000Y-55412500I0J-62500D01*
G01*
X92385000Y-55537500D01*
G75*
G02*
X92322500Y-55600000I-62500J0D01*
G01*
X91647500Y-55600000D01*
G75*
G02*
X91585000Y-55537500I0J62500D01*
G01*
X91585000Y-55412500D01*
G75*
G02*
X91647500Y-55350000I62500J0D01*
G01*
G37*
G36*
G01*
X90972500Y-56025000D02*
X91097500Y-56025000D01*
G75*
G02*
X91160000Y-56087500I0J-62500D01*
G01*
X91160000Y-56762500D01*
G75*
G02*
X91097500Y-56825000I-62500J0D01*
G01*
X90972500Y-56825000D01*
G75*
G02*
X90910000Y-56762500I0J62500D01*
G01*
X90910000Y-56087500D01*
G75*
G02*
X90972500Y-56025000I62500J0D01*
G01*
G37*
G36*
G01*
X90472500Y-56025000D02*
X90597500Y-56025000D01*
G75*
G02*
X90660000Y-56087500I0J-62500D01*
G01*
X90660000Y-56762500D01*
G75*
G02*
X90597500Y-56825000I-62500J0D01*
G01*
X90472500Y-56825000D01*
G75*
G02*
X90410000Y-56762500I0J62500D01*
G01*
X90410000Y-56087500D01*
G75*
G02*
X90472500Y-56025000I62500J0D01*
G01*
G37*
G36*
G01*
X89972500Y-56025000D02*
X90097500Y-56025000D01*
G75*
G02*
X90160000Y-56087500I0J-62500D01*
G01*
X90160000Y-56762500D01*
G75*
G02*
X90097500Y-56825000I-62500J0D01*
G01*
X89972500Y-56825000D01*
G75*
G02*
X89910000Y-56762500I0J62500D01*
G01*
X89910000Y-56087500D01*
G75*
G02*
X89972500Y-56025000I62500J0D01*
G01*
G37*
G36*
G01*
X89472500Y-56025000D02*
X89597500Y-56025000D01*
G75*
G02*
X89660000Y-56087500I0J-62500D01*
G01*
X89660000Y-56762500D01*
G75*
G02*
X89597500Y-56825000I-62500J0D01*
G01*
X89472500Y-56825000D01*
G75*
G02*
X89410000Y-56762500I0J62500D01*
G01*
X89410000Y-56087500D01*
G75*
G02*
X89472500Y-56025000I62500J0D01*
G01*
G37*
G36*
G01*
X88972500Y-56025000D02*
X89097500Y-56025000D01*
G75*
G02*
X89160000Y-56087500I0J-62500D01*
G01*
X89160000Y-56762500D01*
G75*
G02*
X89097500Y-56825000I-62500J0D01*
G01*
X88972500Y-56825000D01*
G75*
G02*
X88910000Y-56762500I0J62500D01*
G01*
X88910000Y-56087500D01*
G75*
G02*
X88972500Y-56025000I62500J0D01*
G01*
G37*
G36*
G01*
X88472500Y-56025000D02*
X88597500Y-56025000D01*
G75*
G02*
X88660000Y-56087500I0J-62500D01*
G01*
X88660000Y-56762500D01*
G75*
G02*
X88597500Y-56825000I-62500J0D01*
G01*
X88472500Y-56825000D01*
G75*
G02*
X88410000Y-56762500I0J62500D01*
G01*
X88410000Y-56087500D01*
G75*
G02*
X88472500Y-56025000I62500J0D01*
G01*
G37*
G36*
G01*
X87972500Y-56025000D02*
X88097500Y-56025000D01*
G75*
G02*
X88160000Y-56087500I0J-62500D01*
G01*
X88160000Y-56762500D01*
G75*
G02*
X88097500Y-56825000I-62500J0D01*
G01*
X87972500Y-56825000D01*
G75*
G02*
X87910000Y-56762500I0J62500D01*
G01*
X87910000Y-56087500D01*
G75*
G02*
X87972500Y-56025000I62500J0D01*
G01*
G37*
G36*
G01*
X86747500Y-55350000D02*
X87422500Y-55350000D01*
G75*
G02*
X87485000Y-55412500I0J-62500D01*
G01*
X87485000Y-55537500D01*
G75*
G02*
X87422500Y-55600000I-62500J0D01*
G01*
X86747500Y-55600000D01*
G75*
G02*
X86685000Y-55537500I0J62500D01*
G01*
X86685000Y-55412500D01*
G75*
G02*
X86747500Y-55350000I62500J0D01*
G01*
G37*
G36*
G01*
X86747500Y-54850000D02*
X87422500Y-54850000D01*
G75*
G02*
X87485000Y-54912500I0J-62500D01*
G01*
X87485000Y-55037500D01*
G75*
G02*
X87422500Y-55100000I-62500J0D01*
G01*
X86747500Y-55100000D01*
G75*
G02*
X86685000Y-55037500I0J62500D01*
G01*
X86685000Y-54912500D01*
G75*
G02*
X86747500Y-54850000I62500J0D01*
G01*
G37*
G36*
G01*
X86747500Y-54350000D02*
X87422500Y-54350000D01*
G75*
G02*
X87485000Y-54412500I0J-62500D01*
G01*
X87485000Y-54537500D01*
G75*
G02*
X87422500Y-54600000I-62500J0D01*
G01*
X86747500Y-54600000D01*
G75*
G02*
X86685000Y-54537500I0J62500D01*
G01*
X86685000Y-54412500D01*
G75*
G02*
X86747500Y-54350000I62500J0D01*
G01*
G37*
G36*
G01*
X86747500Y-53850000D02*
X87422500Y-53850000D01*
G75*
G02*
X87485000Y-53912500I0J-62500D01*
G01*
X87485000Y-54037500D01*
G75*
G02*
X87422500Y-54100000I-62500J0D01*
G01*
X86747500Y-54100000D01*
G75*
G02*
X86685000Y-54037500I0J62500D01*
G01*
X86685000Y-53912500D01*
G75*
G02*
X86747500Y-53850000I62500J0D01*
G01*
G37*
G36*
G01*
X86747500Y-53350000D02*
X87422500Y-53350000D01*
G75*
G02*
X87485000Y-53412500I0J-62500D01*
G01*
X87485000Y-53537500D01*
G75*
G02*
X87422500Y-53600000I-62500J0D01*
G01*
X86747500Y-53600000D01*
G75*
G02*
X86685000Y-53537500I0J62500D01*
G01*
X86685000Y-53412500D01*
G75*
G02*
X86747500Y-53350000I62500J0D01*
G01*
G37*
G36*
G01*
X86747500Y-52850000D02*
X87422500Y-52850000D01*
G75*
G02*
X87485000Y-52912500I0J-62500D01*
G01*
X87485000Y-53037500D01*
G75*
G02*
X87422500Y-53100000I-62500J0D01*
G01*
X86747500Y-53100000D01*
G75*
G02*
X86685000Y-53037500I0J62500D01*
G01*
X86685000Y-52912500D01*
G75*
G02*
X86747500Y-52850000I62500J0D01*
G01*
G37*
G36*
G01*
X86747500Y-52350000D02*
X87422500Y-52350000D01*
G75*
G02*
X87485000Y-52412500I0J-62500D01*
G01*
X87485000Y-52537500D01*
G75*
G02*
X87422500Y-52600000I-62500J0D01*
G01*
X86747500Y-52600000D01*
G75*
G02*
X86685000Y-52537500I0J62500D01*
G01*
X86685000Y-52412500D01*
G75*
G02*
X86747500Y-52350000I62500J0D01*
G01*
G37*
G36*
G01*
X87972500Y-51125000D02*
X88097500Y-51125000D01*
G75*
G02*
X88160000Y-51187500I0J-62500D01*
G01*
X88160000Y-51862500D01*
G75*
G02*
X88097500Y-51925000I-62500J0D01*
G01*
X87972500Y-51925000D01*
G75*
G02*
X87910000Y-51862500I0J62500D01*
G01*
X87910000Y-51187500D01*
G75*
G02*
X87972500Y-51125000I62500J0D01*
G01*
G37*
G36*
G01*
X88472500Y-51125000D02*
X88597500Y-51125000D01*
G75*
G02*
X88660000Y-51187500I0J-62500D01*
G01*
X88660000Y-51862500D01*
G75*
G02*
X88597500Y-51925000I-62500J0D01*
G01*
X88472500Y-51925000D01*
G75*
G02*
X88410000Y-51862500I0J62500D01*
G01*
X88410000Y-51187500D01*
G75*
G02*
X88472500Y-51125000I62500J0D01*
G01*
G37*
G36*
G01*
X88972500Y-51125000D02*
X89097500Y-51125000D01*
G75*
G02*
X89160000Y-51187500I0J-62500D01*
G01*
X89160000Y-51862500D01*
G75*
G02*
X89097500Y-51925000I-62500J0D01*
G01*
X88972500Y-51925000D01*
G75*
G02*
X88910000Y-51862500I0J62500D01*
G01*
X88910000Y-51187500D01*
G75*
G02*
X88972500Y-51125000I62500J0D01*
G01*
G37*
G36*
G01*
X89472500Y-51125000D02*
X89597500Y-51125000D01*
G75*
G02*
X89660000Y-51187500I0J-62500D01*
G01*
X89660000Y-51862500D01*
G75*
G02*
X89597500Y-51925000I-62500J0D01*
G01*
X89472500Y-51925000D01*
G75*
G02*
X89410000Y-51862500I0J62500D01*
G01*
X89410000Y-51187500D01*
G75*
G02*
X89472500Y-51125000I62500J0D01*
G01*
G37*
G36*
G01*
X89972500Y-51125000D02*
X90097500Y-51125000D01*
G75*
G02*
X90160000Y-51187500I0J-62500D01*
G01*
X90160000Y-51862500D01*
G75*
G02*
X90097500Y-51925000I-62500J0D01*
G01*
X89972500Y-51925000D01*
G75*
G02*
X89910000Y-51862500I0J62500D01*
G01*
X89910000Y-51187500D01*
G75*
G02*
X89972500Y-51125000I62500J0D01*
G01*
G37*
G36*
G01*
X90472500Y-51125000D02*
X90597500Y-51125000D01*
G75*
G02*
X90660000Y-51187500I0J-62500D01*
G01*
X90660000Y-51862500D01*
G75*
G02*
X90597500Y-51925000I-62500J0D01*
G01*
X90472500Y-51925000D01*
G75*
G02*
X90410000Y-51862500I0J62500D01*
G01*
X90410000Y-51187500D01*
G75*
G02*
X90472500Y-51125000I62500J0D01*
G01*
G37*
G36*
G01*
X90972500Y-51125000D02*
X91097500Y-51125000D01*
G75*
G02*
X91160000Y-51187500I0J-62500D01*
G01*
X91160000Y-51862500D01*
G75*
G02*
X91097500Y-51925000I-62500J0D01*
G01*
X90972500Y-51925000D01*
G75*
G02*
X90910000Y-51862500I0J62500D01*
G01*
X90910000Y-51187500D01*
G75*
G02*
X90972500Y-51125000I62500J0D01*
G01*
G37*
D12*
X97540000Y-45085000D03*
D13*
X97540000Y-44085000D03*
X97540000Y-45585000D03*
X97540000Y-46085000D03*
X97540000Y-44585000D03*
X96770000Y-46085000D03*
X96770000Y-45585000D03*
D12*
X96770000Y-45085000D03*
D13*
X96770000Y-44585000D03*
X96770000Y-44085000D03*
G36*
G01*
X104375000Y-87179999D02*
X104375000Y-88080001D01*
G75*
G02*
X104125001Y-88330000I-249999J0D01*
G01*
X103599999Y-88330000D01*
G75*
G02*
X103350000Y-88080001I0J249999D01*
G01*
X103350000Y-87179999D01*
G75*
G02*
X103599999Y-86930000I249999J0D01*
G01*
X104125001Y-86930000D01*
G75*
G02*
X104375000Y-87179999I0J-249999D01*
G01*
G37*
G36*
G01*
X106200000Y-87179999D02*
X106200000Y-88080001D01*
G75*
G02*
X105950001Y-88330000I-249999J0D01*
G01*
X105424999Y-88330000D01*
G75*
G02*
X105175000Y-88080001I0J249999D01*
G01*
X105175000Y-87179999D01*
G75*
G02*
X105424999Y-86930000I249999J0D01*
G01*
X105950001Y-86930000D01*
G75*
G02*
X106200000Y-87179999I0J-249999D01*
G01*
G37*
G36*
G01*
X106102999Y-76322500D02*
X107003001Y-76322500D01*
G75*
G02*
X107253000Y-76572499I0J-249999D01*
G01*
X107253000Y-77097501D01*
G75*
G02*
X107003001Y-77347500I-249999J0D01*
G01*
X106102999Y-77347500D01*
G75*
G02*
X105853000Y-77097501I0J249999D01*
G01*
X105853000Y-76572499D01*
G75*
G02*
X106102999Y-76322500I249999J0D01*
G01*
G37*
G36*
G01*
X106102999Y-74497500D02*
X107003001Y-74497500D01*
G75*
G02*
X107253000Y-74747499I0J-249999D01*
G01*
X107253000Y-75272501D01*
G75*
G02*
X107003001Y-75522500I-249999J0D01*
G01*
X106102999Y-75522500D01*
G75*
G02*
X105853000Y-75272501I0J249999D01*
G01*
X105853000Y-74747499D01*
G75*
G02*
X106102999Y-74497500I249999J0D01*
G01*
G37*
G36*
G01*
X103701001Y-75546000D02*
X102800999Y-75546000D01*
G75*
G02*
X102551000Y-75296001I0J249999D01*
G01*
X102551000Y-74770999D01*
G75*
G02*
X102800999Y-74521000I249999J0D01*
G01*
X103701001Y-74521000D01*
G75*
G02*
X103951000Y-74770999I0J-249999D01*
G01*
X103951000Y-75296001D01*
G75*
G02*
X103701001Y-75546000I-249999J0D01*
G01*
G37*
G36*
G01*
X103701001Y-77371000D02*
X102800999Y-77371000D01*
G75*
G02*
X102551000Y-77121001I0J249999D01*
G01*
X102551000Y-76595999D01*
G75*
G02*
X102800999Y-76346000I249999J0D01*
G01*
X103701001Y-76346000D01*
G75*
G02*
X103951000Y-76595999I0J-249999D01*
G01*
X103951000Y-77121001D01*
G75*
G02*
X103701001Y-77371000I-249999J0D01*
G01*
G37*
G36*
G01*
X88842001Y-64878000D02*
X87941999Y-64878000D01*
G75*
G02*
X87692000Y-64628001I0J249999D01*
G01*
X87692000Y-64102999D01*
G75*
G02*
X87941999Y-63853000I249999J0D01*
G01*
X88842001Y-63853000D01*
G75*
G02*
X89092000Y-64102999I0J-249999D01*
G01*
X89092000Y-64628001D01*
G75*
G02*
X88842001Y-64878000I-249999J0D01*
G01*
G37*
G36*
G01*
X88842001Y-66703000D02*
X87941999Y-66703000D01*
G75*
G02*
X87692000Y-66453001I0J249999D01*
G01*
X87692000Y-65927999D01*
G75*
G02*
X87941999Y-65678000I249999J0D01*
G01*
X88842001Y-65678000D01*
G75*
G02*
X89092000Y-65927999I0J-249999D01*
G01*
X89092000Y-66453001D01*
G75*
G02*
X88842001Y-66703000I-249999J0D01*
G01*
G37*
G36*
G01*
X92271001Y-64901500D02*
X91370999Y-64901500D01*
G75*
G02*
X91121000Y-64651501I0J249999D01*
G01*
X91121000Y-64126499D01*
G75*
G02*
X91370999Y-63876500I249999J0D01*
G01*
X92271001Y-63876500D01*
G75*
G02*
X92521000Y-64126499I0J-249999D01*
G01*
X92521000Y-64651501D01*
G75*
G02*
X92271001Y-64901500I-249999J0D01*
G01*
G37*
G36*
G01*
X92271001Y-66726500D02*
X91370999Y-66726500D01*
G75*
G02*
X91121000Y-66476501I0J249999D01*
G01*
X91121000Y-65951499D01*
G75*
G02*
X91370999Y-65701500I249999J0D01*
G01*
X92271001Y-65701500D01*
G75*
G02*
X92521000Y-65951499I0J-249999D01*
G01*
X92521000Y-66476501D01*
G75*
G02*
X92271001Y-66726500I-249999J0D01*
G01*
G37*
G36*
G01*
X84016001Y-53805500D02*
X83115999Y-53805500D01*
G75*
G02*
X82866000Y-53555501I0J249999D01*
G01*
X82866000Y-53030499D01*
G75*
G02*
X83115999Y-52780500I249999J0D01*
G01*
X84016001Y-52780500D01*
G75*
G02*
X84266000Y-53030499I0J-249999D01*
G01*
X84266000Y-53555501D01*
G75*
G02*
X84016001Y-53805500I-249999J0D01*
G01*
G37*
G36*
G01*
X84016001Y-55630500D02*
X83115999Y-55630500D01*
G75*
G02*
X82866000Y-55380501I0J249999D01*
G01*
X82866000Y-54855499D01*
G75*
G02*
X83115999Y-54605500I249999J0D01*
G01*
X84016001Y-54605500D01*
G75*
G02*
X84266000Y-54855499I0J-249999D01*
G01*
X84266000Y-55380501D01*
G75*
G02*
X84016001Y-55630500I-249999J0D01*
G01*
G37*
G36*
G01*
X87445001Y-45320000D02*
X86544999Y-45320000D01*
G75*
G02*
X86295000Y-45070001I0J249999D01*
G01*
X86295000Y-44544999D01*
G75*
G02*
X86544999Y-44295000I249999J0D01*
G01*
X87445001Y-44295000D01*
G75*
G02*
X87695000Y-44544999I0J-249999D01*
G01*
X87695000Y-45070001D01*
G75*
G02*
X87445001Y-45320000I-249999J0D01*
G01*
G37*
G36*
G01*
X87445001Y-47145000D02*
X86544999Y-47145000D01*
G75*
G02*
X86295000Y-46895001I0J249999D01*
G01*
X86295000Y-46369999D01*
G75*
G02*
X86544999Y-46120000I249999J0D01*
G01*
X87445001Y-46120000D01*
G75*
G02*
X87695000Y-46369999I0J-249999D01*
G01*
X87695000Y-46895001D01*
G75*
G02*
X87445001Y-47145000I-249999J0D01*
G01*
G37*
G36*
G01*
X89719999Y-46120000D02*
X90620001Y-46120000D01*
G75*
G02*
X90870000Y-46369999I0J-249999D01*
G01*
X90870000Y-46895001D01*
G75*
G02*
X90620001Y-47145000I-249999J0D01*
G01*
X89719999Y-47145000D01*
G75*
G02*
X89470000Y-46895001I0J249999D01*
G01*
X89470000Y-46369999D01*
G75*
G02*
X89719999Y-46120000I249999J0D01*
G01*
G37*
G36*
G01*
X89719999Y-44295000D02*
X90620001Y-44295000D01*
G75*
G02*
X90870000Y-44544999I0J-249999D01*
G01*
X90870000Y-45070001D01*
G75*
G02*
X90620001Y-45320000I-249999J0D01*
G01*
X89719999Y-45320000D01*
G75*
G02*
X89470000Y-45070001I0J249999D01*
G01*
X89470000Y-44544999D01*
G75*
G02*
X89719999Y-44295000I249999J0D01*
G01*
G37*
D14*
X105029000Y-83439000D03*
D15*
X105029000Y-80899000D03*
D14*
X90424000Y-71501000D03*
X92964000Y-71501000D03*
D15*
X95504000Y-71501000D03*
D14*
X100584000Y-71501000D03*
X103124000Y-71501000D03*
D15*
X105664000Y-71501000D03*
D14*
X92456000Y-92075000D03*
X89916000Y-92075000D03*
X87376000Y-92075000D03*
D15*
X84836000Y-92075000D03*
D14*
X98806000Y-92075000D03*
X101346000Y-92075000D03*
X103886000Y-92075000D03*
D15*
X106426000Y-92075000D03*
D14*
X106045000Y-66421000D03*
X103505000Y-66421000D03*
X106045000Y-63881000D03*
X103505000Y-63881000D03*
X106045000Y-61341000D03*
X103505000Y-61341000D03*
X106045000Y-58801000D03*
X103505000Y-58801000D03*
X106045000Y-56261000D03*
X103505000Y-56261000D03*
X106045000Y-53721000D03*
X103505000Y-53721000D03*
X106045000Y-51181000D03*
X103505000Y-51181000D03*
X106045000Y-48641000D03*
D15*
X103505000Y-48641000D03*
D16*
X86055000Y-36565000D03*
X98095000Y-36565000D03*
D17*
X90825000Y-39275000D03*
X93325000Y-39275000D03*
X93325000Y-41275000D03*
X90825000Y-41275000D03*
G36*
G01*
X87935750Y-61791000D02*
X88848250Y-61791000D01*
G75*
G02*
X89092000Y-62034750I0J-243750D01*
G01*
X89092000Y-62522250D01*
G75*
G02*
X88848250Y-62766000I-243750J0D01*
G01*
X87935750Y-62766000D01*
G75*
G02*
X87692000Y-62522250I0J243750D01*
G01*
X87692000Y-62034750D01*
G75*
G02*
X87935750Y-61791000I243750J0D01*
G01*
G37*
G36*
G01*
X87935750Y-59916000D02*
X88848250Y-59916000D01*
G75*
G02*
X89092000Y-60159750I0J-243750D01*
G01*
X89092000Y-60647250D01*
G75*
G02*
X88848250Y-60891000I-243750J0D01*
G01*
X87935750Y-60891000D01*
G75*
G02*
X87692000Y-60647250I0J243750D01*
G01*
X87692000Y-60159750D01*
G75*
G02*
X87935750Y-59916000I243750J0D01*
G01*
G37*
G36*
G01*
X91364750Y-61791000D02*
X92277250Y-61791000D01*
G75*
G02*
X92521000Y-62034750I0J-243750D01*
G01*
X92521000Y-62522250D01*
G75*
G02*
X92277250Y-62766000I-243750J0D01*
G01*
X91364750Y-62766000D01*
G75*
G02*
X91121000Y-62522250I0J243750D01*
G01*
X91121000Y-62034750D01*
G75*
G02*
X91364750Y-61791000I243750J0D01*
G01*
G37*
G36*
G01*
X91364750Y-59916000D02*
X92277250Y-59916000D01*
G75*
G02*
X92521000Y-60159750I0J-243750D01*
G01*
X92521000Y-60647250D01*
G75*
G02*
X92277250Y-60891000I-243750J0D01*
G01*
X91364750Y-60891000D01*
G75*
G02*
X91121000Y-60647250I0J243750D01*
G01*
X91121000Y-60159750D01*
G75*
G02*
X91364750Y-59916000I243750J0D01*
G01*
G37*
G36*
G01*
X90899000Y-83177000D02*
X89949000Y-83177000D01*
G75*
G02*
X89699000Y-82927000I0J250000D01*
G01*
X89699000Y-82427000D01*
G75*
G02*
X89949000Y-82177000I250000J0D01*
G01*
X90899000Y-82177000D01*
G75*
G02*
X91149000Y-82427000I0J-250000D01*
G01*
X91149000Y-82927000D01*
G75*
G02*
X90899000Y-83177000I-250000J0D01*
G01*
G37*
G36*
G01*
X90899000Y-85077000D02*
X89949000Y-85077000D01*
G75*
G02*
X89699000Y-84827000I0J250000D01*
G01*
X89699000Y-84327000D01*
G75*
G02*
X89949000Y-84077000I250000J0D01*
G01*
X90899000Y-84077000D01*
G75*
G02*
X91149000Y-84327000I0J-250000D01*
G01*
X91149000Y-84827000D01*
G75*
G02*
X90899000Y-85077000I-250000J0D01*
G01*
G37*
G36*
G01*
X94074000Y-83243000D02*
X93124000Y-83243000D01*
G75*
G02*
X92874000Y-82993000I0J250000D01*
G01*
X92874000Y-82493000D01*
G75*
G02*
X93124000Y-82243000I250000J0D01*
G01*
X94074000Y-82243000D01*
G75*
G02*
X94324000Y-82493000I0J-250000D01*
G01*
X94324000Y-82993000D01*
G75*
G02*
X94074000Y-83243000I-250000J0D01*
G01*
G37*
G36*
G01*
X94074000Y-85143000D02*
X93124000Y-85143000D01*
G75*
G02*
X92874000Y-84893000I0J250000D01*
G01*
X92874000Y-84393000D01*
G75*
G02*
X93124000Y-84143000I250000J0D01*
G01*
X94074000Y-84143000D01*
G75*
G02*
X94324000Y-84393000I0J-250000D01*
G01*
X94324000Y-84893000D01*
G75*
G02*
X94074000Y-85143000I-250000J0D01*
G01*
G37*
G36*
G01*
X99154000Y-48953000D02*
X98204000Y-48953000D01*
G75*
G02*
X97954000Y-48703000I0J250000D01*
G01*
X97954000Y-48203000D01*
G75*
G02*
X98204000Y-47953000I250000J0D01*
G01*
X99154000Y-47953000D01*
G75*
G02*
X99404000Y-48203000I0J-250000D01*
G01*
X99404000Y-48703000D01*
G75*
G02*
X99154000Y-48953000I-250000J0D01*
G01*
G37*
G36*
G01*
X99154000Y-50853000D02*
X98204000Y-50853000D01*
G75*
G02*
X97954000Y-50603000I0J250000D01*
G01*
X97954000Y-50103000D01*
G75*
G02*
X98204000Y-49853000I250000J0D01*
G01*
X99154000Y-49853000D01*
G75*
G02*
X99404000Y-50103000I0J-250000D01*
G01*
X99404000Y-50603000D01*
G75*
G02*
X99154000Y-50853000I-250000J0D01*
G01*
G37*
G36*
G01*
X95852000Y-48953000D02*
X94902000Y-48953000D01*
G75*
G02*
X94652000Y-48703000I0J250000D01*
G01*
X94652000Y-48203000D01*
G75*
G02*
X94902000Y-47953000I250000J0D01*
G01*
X95852000Y-47953000D01*
G75*
G02*
X96102000Y-48203000I0J-250000D01*
G01*
X96102000Y-48703000D01*
G75*
G02*
X95852000Y-48953000I-250000J0D01*
G01*
G37*
G36*
G01*
X95852000Y-50853000D02*
X94902000Y-50853000D01*
G75*
G02*
X94652000Y-50603000I0J250000D01*
G01*
X94652000Y-50103000D01*
G75*
G02*
X94902000Y-49853000I250000J0D01*
G01*
X95852000Y-49853000D01*
G75*
G02*
X96102000Y-50103000I0J-250000D01*
G01*
X96102000Y-50603000D01*
G75*
G02*
X95852000Y-50853000I-250000J0D01*
G01*
G37*
G36*
G01*
X83091000Y-50234000D02*
X84041000Y-50234000D01*
G75*
G02*
X84291000Y-50484000I0J-250000D01*
G01*
X84291000Y-50984000D01*
G75*
G02*
X84041000Y-51234000I-250000J0D01*
G01*
X83091000Y-51234000D01*
G75*
G02*
X82841000Y-50984000I0J250000D01*
G01*
X82841000Y-50484000D01*
G75*
G02*
X83091000Y-50234000I250000J0D01*
G01*
G37*
G36*
G01*
X83091000Y-48334000D02*
X84041000Y-48334000D01*
G75*
G02*
X84291000Y-48584000I0J-250000D01*
G01*
X84291000Y-49084000D01*
G75*
G02*
X84041000Y-49334000I-250000J0D01*
G01*
X83091000Y-49334000D01*
G75*
G02*
X82841000Y-49084000I0J250000D01*
G01*
X82841000Y-48584000D01*
G75*
G02*
X83091000Y-48334000I250000J0D01*
G01*
G37*
G36*
G01*
X84041000Y-45270000D02*
X83091000Y-45270000D01*
G75*
G02*
X82841000Y-45020000I0J250000D01*
G01*
X82841000Y-44520000D01*
G75*
G02*
X83091000Y-44270000I250000J0D01*
G01*
X84041000Y-44270000D01*
G75*
G02*
X84291000Y-44520000I0J-250000D01*
G01*
X84291000Y-45020000D01*
G75*
G02*
X84041000Y-45270000I-250000J0D01*
G01*
G37*
G36*
G01*
X84041000Y-47170000D02*
X83091000Y-47170000D01*
G75*
G02*
X82841000Y-46920000I0J250000D01*
G01*
X82841000Y-46420000D01*
G75*
G02*
X83091000Y-46170000I250000J0D01*
G01*
X84041000Y-46170000D01*
G75*
G02*
X84291000Y-46420000I0J-250000D01*
G01*
X84291000Y-46920000D01*
G75*
G02*
X84041000Y-47170000I-250000J0D01*
G01*
G37*
M02*
